<svg fill="none" xmlns="http://www.w3.org/2000/svg" viewBox="0 0 512 512" style="enable-background:new 0 0 512 512" xml:space="preserve">
  <path fill="#fff" d="M437.162 290.133c-7.68-83.627-23.04-147.627-46.933-184.32-1.707-1.707-11.947-13.653-15.36-17.92a8.89 8.89 0 0 0-2.777-1.897c-8.632-8.406-16.525-14.493-23.677-16.877.853-9.387-1.707-20.48-7.68-30.72C327.935 14.507 299.775 0 255.402 0s-72.533 14.507-85.333 38.4c-5.973 10.24-8.533 21.333-8.533 30.72-6.827 2.56-14.507 8.533-24.747 18.773-3.413 4.267-7.68 7.68-11.093 11.947-1.707 2.56-3.413 4.267-4.267 5.12-23.893 37.547-39.253 101.547-46.933 185.173-6.827 66.56-7.68 136.533-6.827 197.973v15.359c0 4.267 4.267 8.533 8.533 8.533h34.133c3.413 0 6.827-1.707 7.68-5.12l22.369-53.994a93.584 93.584 0 0 0 4.084 3.597v38.45c0 9.387 7.68 17.067 17.067 17.067h187.733c9.387 0 17.067-7.68 17.067-17.067v-37.757a93.412 93.412 0 0 0 4.938-4.29l18.002 43.453 3.514 10.541c1.707 3.413 4.267 5.12 7.68 5.12H435.455c4.267 0 8.533-3.413 8.533-8.533v-15.36c1.707-61.438.001-131.412-6.826-197.972zm-17.067 2.56c4.837 53.202 6.874 108.638 6.569 160.427h-38.968l-4.294-10.24c.065-1.606.126-3.196.189-4.794.389-.962.665-1.924.665-2.886 3.413-104.96 2.56-191.147-.853-261.12a871.7 871.7 0 0 0-3.312-51.872c19.568 34.163 32.338 93.818 40.004 170.485zm5.974 202.24h-19.627l-10.24-25.6h30.282a1619.89 1619.89 0 0 1-.415 19.627v5.973zM91.562 291.84c7.562-74.779 20.092-133.821 39.211-169.017-1.385 15.054-2.668 32.42-3.371 52.11-1.65 44.538-2.588 96.175-2.136 155.343.157 34.873.837 72.135 2.136 111.751l-4.294 10.24H84.992c-.295-51.461 1.743-107.334 6.57-160.427zm13.653 203.093H85.589v-25.599h30.362l-10.736 25.599zm244.054 0H161.535v-27.212a92.196 92.196 0 0 0 9.863 4.322l.222.084c.769.282 1.543.553 2.32.815l.292.101c9.489 3.165 19.574 4.824 29.971 4.824h103.253c14.851 0 29.068-3.379 41.813-9.711v26.777zm-28.226-35.341c-.323.057-.645.118-.969.171-.397.066-.796.124-1.194.184-.587.087-1.174.168-1.763.242-.266.033-.531.069-.797.1a81.13 81.13 0 0 1-2.651.26c-.169.014-.339.023-.509.035a77.86 77.86 0 0 1-2.978.163 77.41 77.41 0 0 1-2.726.054H204.202a77.857 77.857 0 0 1-3.42-.083 78.25 78.25 0 0 1-2.419-.143l-.319-.022a75.596 75.596 0 0 1-2.887-.286l-.172-.022a76.247 76.247 0 0 1-2.889-.402l-.022-.003a76.631 76.631 0 0 1-23.243-7.664l-.112-.06a77.735 77.735 0 0 1-2.135-1.166c-.315-.178-.631-.355-.943-.538-.231-.134-.459-.277-.69-.414a73.974 73.974 0 0 1-20.482-18.21c-1.44-43.552-2.118-83.751-2.167-120.816.065-48.697 1.162-92.345 3.021-130.918 1.554-38.862 4.524-69.22 6.331-81.42 5.819-5.786 10.809-9.947 13.876-11.662 2.178 3.847 5.174 8.198 8.807 12.868 10.24 12.8 23.04 20.48 38.4 20.48 5.12 0 8.533-3.413 8.533-8.533s-3.413-8.533-8.533-8.533c-9.387 0-17.92-5.12-25.6-13.653-2.56-3.413-5.12-6.827-6.827-10.24-1.091-2.182-1.485-3.661-1.85-4.671-.433-8.797 1.378-18.214 6.116-26.902 10.24-19.627 32.427-30.72 70.827-30.72s60.587 11.093 70.827 29.867c5.12 9.387 6.827 19.627 5.973 28.16-.006.045-.005.089-.01.134-1.918 3.496-6.523 10.852-8.524 13.519-7.68 8.533-16.213 13.653-25.6 13.653-5.12 0-8.533 3.413-8.533 8.533s3.413 8.533 8.533 8.533c15.36 0 28.16-7.68 38.4-20.48 3.71-4.24 6.76-8.809 8.949-12.889 3.377 1.735 8.944 6.036 14.944 12.036 0 .853.853 10.24 1.707 16.213a876.798 876.798 0 0 1 4.267 60.587c3.413 68.267 4.267 153.6.853 256.853-11.622 15.04-28.175 24.597-46.146 27.805z"/><path d="M242.602 102.4h25.6c5.12 0 10.24-2.56 13.653-5.973l20.48-26.453c8.533-11.093.853-27.307-13.653-27.307h-66.56c-14.507 0-22.187 16.213-13.653 27.307l20.48 25.6c3.413 4.266 8.533 6.826 13.653 6.826zm46.08-42.667-20.48 25.6h-25.6l-20.48-25.6h66.56zM229.802 204.8c5.12 0 8.533-3.413 8.533-8.533V128c0-5.12-3.413-8.533-8.533-8.533-5.12 0-8.533 3.413-8.533 8.533v68.267c0 5.12 3.413 8.533 8.533 8.533zM272.469 128v68.267c0 5.12 3.413 8.533 8.533 8.533s8.533-3.413 8.533-8.533V128c0-5.12-3.413-8.533-8.533-8.533s-8.533 3.413-8.533 8.533zM340.735 392.533c-17.92 0-34.133-22.187-34.133-51.2 0-5.12-3.413-8.533-8.533-8.533h-85.334c-5.12 0-8.533 3.413-8.533 8.533 0 29.013-16.213 51.2-34.133 51.2-5.12 0-8.533 3.413-8.533 8.533V435.2c0 5.12 3.413 8.533 8.533 8.533h170.666c5.12 0 8.533-3.413 8.533-8.533v-34.133c.001-5.12-3.413-8.534-8.533-8.534zm-162.133 16.214c22.187-5.12 39.253-29.013 42.667-58.88h25.6v76.8h-68.267v-17.92zm153.6 17.92h-68.267v-76.8h25.6c3.413 29.867 20.48 53.76 42.667 58.88v17.92z"/>
</svg>