<svg fill="none" xmlns="http://www.w3.org/2000/svg" viewBox="0 0 398.614 398.614" style="enable-background:new 0 0 398.614 398.614" xml:space="preserve">
  <path fill="#fff" d="M398.074 265.117a709.115 709.115 0 0 0-56.93-179.184c-6.007-12.74-18.917-20.632-32.951-20.101-26.745 1.01-52.264 6.687-76.248 16.917a79.442 79.442 0 0 0-.345-4.276c-4.738-42.47-43.146-73.178-85.615-68.43C111.741 13.864 84.56 39.641 78.394 72.8l-19.627-5.013a24.873 24.873 0 0 0-29.58 15.557l-27.1 73.707a24.983 24.983 0 0 0 1.335 20.216 24.982 24.982 0 0 0 15.901 12.555l22.074 5.638-2.069 29.206-11.625 20.477a7.491 7.491 0 0 0-.968 3.333l-1.525 30.917-8.795 11.371a7.495 7.495 0 0 0-1.546 4.023l-2.746 36.352-11.06 18.498a7.5 7.5 0 0 0 .431 8.341l20.994 28.068a7.501 7.501 0 0 0 8.328 2.639l39.078-12.725a7.497 7.497 0 0 0 4.944-5.275l39.966-156.477 20.875 5.332a24.98 24.98 0 0 0 19.974-3.392 24.983 24.983 0 0 0 10.866-17.1l5.428-36.459a77.403 77.403 0 0 0 15.15-5.14 709.137 709.137 0 0 0 52.827 157.915c5.817 12.337 18.13 20.126 31.625 20.126.441 0 .883-.008 1.326-.025 39.664-1.498 76.637-13.246 109.892-34.915 11.747-7.654 17.755-21.563 15.307-35.433zM82.267 115.33c.048 0 .096.008.145.009a76.998 76.998 0 0 0 7.097 13.848 7.494 7.494 0 0 0 10.373 2.213 7.5 7.5 0 0 0 2.214-10.373c-.227-.35-.444-.706-.663-1.061l12.865 3.286c4.274 1.092 6.863 5.457 5.771 9.731-1.092 4.273-5.459 6.862-9.731 5.771l-30.036-7.671a7.949 7.949 0 0 1-4.901-3.67c-1.09-1.838-1.399-3.99-.871-6.061s1.833-3.811 3.67-4.901a7.958 7.958 0 0 1 4.067-1.121zM25.906 337.318a7.512 7.512 0 0 0 1.042-3.284l2.709-35.873 8.86-11.456a7.5 7.5 0 0 0 1.558-4.219l1.554-31.49 11.583-20.403c.552-.973.88-2.057.959-3.173l1.997-28.188 10.469 2.674-41.53 162.599-8.59-11.485 9.389-15.702zm74.365-126.822L61.326 362.975l-22.192 7.227L81.17 205.618l12.814 3.273 6.287 1.605zm51.411-13.657a9.822 9.822 0 0 1-4.33 6.815 9.825 9.825 0 0 1-7.961 1.352L23.036 175.288a9.82 9.82 0 0 1-6.337-5.004 9.822 9.822 0 0 1-.533-8.057l27.1-73.707a9.912 9.912 0 0 1 11.79-6.201l22.035 5.628c.033 2.575.18 5.152.465 7.71.188 1.686.451 3.362.749 5.032a22.994 22.994 0 0 0-7.758 2.86 22.848 22.848 0 0 0-10.551 14.09 22.847 22.847 0 0 0 2.502 17.425 22.848 22.848 0 0 0 14.09 10.551l30.036 7.671a22.86 22.86 0 0 0 17.425-2.502c5.284-3.134 9.031-8.138 10.552-14.091s.631-12.141-2.502-17.424a22.85 22.85 0 0 0-14.09-10.552l-23.958-6.119a63.132 63.132 0 0 1-1.587-8.605 65.516 65.516 0 0 1-.193-2.171l63.604 16.245a9.912 9.912 0 0 1 7.371 11.094l-11.564 77.678zm22.68-50.478 3.72-24.988a24.873 24.873 0 0 0-18.496-27.836L92.959 76.52c4.613-27.198 26.735-48.45 54.69-51.569 34.25-3.819 65.223 20.936 69.044 55.185.359 3.216.455 6.46.319 9.671a222.621 222.621 0 0 0-18.711 10.939c-11.746 7.654-17.754 21.562-15.307 35.434.354 2.005.74 4.004 1.111 6.005a61.815 61.815 0 0 1-9.743 4.176zm200.216 141.621c-30.948 20.167-65.357 31.099-102.27 32.493-7.985.294-15.378-4.215-18.817-11.509-23.989-50.873-41.682-104.496-52.729-159.612 8.613-6.395 15.911-14.614 21.37-24.304a7.5 7.5 0 0 0-13.069-7.363 63.05 63.05 0 0 1-11.46 14.721c-.886-7.545 2.514-14.941 8.886-19.094 30.948-20.167 65.357-31.099 102.27-32.493.252-.009.503-.014.754-.014 7.7 0 14.733 4.46 18.063 11.523a694.16 694.16 0 0 1 55.726 175.393c1.402 7.941-2.023 15.893-8.724 20.259z"/><path d="M358.158 236.464c-2.568-8.082-11.233-12.567-19.315-10l-72.858 23.148c-8.082 2.568-12.568 11.233-10 19.315l6.945 21.859c2.078 6.539 8.146 10.724 14.668 10.724 1.539 0 3.104-.233 4.646-.723l72.858-23.148c8.082-2.568 12.568-11.233 10-19.315l-6.944-21.86zm-80.456 50.027a.381.381 0 0 1-.478-.247l-6.945-21.859a.38.38 0 0 1 .247-.477l29.281-9.303 7.175 22.583-29.28 9.303zm72.857-23.149-29.281 9.303-7.175-22.583 29.281-9.303a.381.381 0 0 1 .478.247l6.945 21.859a.38.38 0 0 1-.248.477zM235.085 161.528l78.15-24.83a7.5 7.5 0 1 0-4.542-14.296l-78.15 24.83a7.5 7.5 0 1 0 4.542 14.296zM325.38 150.153a7.502 7.502 0 0 0-9.419-4.877l-78.15 24.83a7.5 7.5 0 1 0 4.542 14.296l78.15-24.83a7.5 7.5 0 0 0 4.877-9.419z"/>
</svg>