<svg fill="none" xmlns="http://www.w3.org/2000/svg" viewBox="0 0 25 25">
  <g clip-path="url(#a)" fill="#F2F3F3">
    <path d="M20.338 8.902h-4.52v7.532h4.52a.943.943 0 0 0 .941-.942V9.843a.943.943 0 0 0-.941-.941Zm-.565 6.025h-2.448v-4.519h2.448v4.52Z"/>
    <path d="M21.306 6.077h-3.981V3.441H2.262v16.193a3.016 3.016 0 0 0 3.012 3.013h9.038a3.016 3.016 0 0 0 3.013-3.013v-.376h3.981a2.8 2.8 0 0 0 2.797-2.797V8.874a2.8 2.8 0 0 0-2.797-2.798Zm1.291 10.383a1.292 1.292 0 0 1-1.29 1.291h-5.488v1.883a1.508 1.508 0 0 1-1.507 1.507H5.274a1.508 1.508 0 0 1-1.506-1.507V4.948h12.05v2.636h5.488a1.292 1.292 0 0 1 1.291 1.29v7.586Z"/>
  </g>
  <defs>
    <clipPath id="a">
      <path fill="#fff" transform="translate(.755 .429)" d="M0 0h24.101v24.101H0z"/>
    </clipPath>
  </defs>
</svg>
