<svg fill="none" xmlns="http://www.w3.org/2000/svg" viewBox="0 0 256 256" xml:space="preserve">
  <g>
    <g style="stroke:none;stroke-width:0;stroke-dasharray:none;stroke-linecap:butt;stroke-linejoin:miter;stroke-miterlimit:10;fill-rule:nonzero;opacity:1">
      <path fill="#fff" d="M45 90a6.986 6.986 0 0 1-3.488-.931L8.58 70.054a6.991 6.991 0 0 1-3.488-6.04V25.987c0-2.485 1.337-4.8 3.489-6.041L41.512.932a6.996 6.996 0 0 1 6.977 0L81.42 19.945a6.994 6.994 0 0 1 3.488 6.041v38.027c0 2.485-1.337 4.8-3.489 6.041L48.488 89.068A6.977 6.977 0 0 1 45 90zm0-84.002a.974.974 0 0 0-.487.13L11.58 25.142a.98.98 0 0 0-.488.845v38.027c0 .347.187.671.487.844l32.933 19.015a.98.98 0 0 0 .975 0L78.42 64.859a.977.977 0 0 0 .487-.845V25.987a.978.978 0 0 0-.486-.844L45.487 6.128a.971.971 0 0 0-.487-.13z" style="stroke:none;stroke-width:1;stroke-dasharray:none;stroke-linecap:butt;stroke-linejoin:miter;stroke-miterlimit:10;fill-rule:nonzero;opacity:1" transform="translate(1.964 1.964) scale(2.8008)"/>
      <path fill="#fff" d="M32.122 58.462a3.001 3.001 0 0 1-2.549-1.418l-7.438-11.983v10.401a3 3 0 1 1-6 0V34.538a3 3 0 0 1 5.549-1.582l7.438 11.983V34.538a3 3 0 1 1 6 0v20.924a3 3 0 0 1-3 3zM42.236 58.462a3 3 0 0 1-3-3V34.538a3 3 0 0 1 3-3h8.321a3 3 0 1 1 0 6h-5.321v17.924a3 3 0 0 1-3 3z" style="stroke:none;stroke-width:1;stroke-dasharray:none;stroke-linecap:butt;stroke-linejoin:miter;stroke-miterlimit:10;fill-rule:nonzero;opacity:1" transform="translate(1.964 1.964) scale(2.8008)"/>
      <path fill="#fff" d="M50.557 48h-8.321a3 3 0 1 1 0-6h8.321a3 3 0 1 1 0 6zM70.865 37.538H58.974a3 3 0 1 1 0-6h11.891a3 3 0 1 1 0 6z" style="stroke:none;stroke-width:1;stroke-dasharray:none;stroke-linecap:butt;stroke-linejoin:miter;stroke-miterlimit:10;fill-rule:nonzero;opacity:1" transform="translate(1.964 1.964) scale(2.8008)"/>
      <path fill="#fff" d="M64.919 58.462a3 3 0 0 1-3-3V34.538a3 3 0 1 1 6 0v20.924a3 3 0 0 1-3 3z" style="stroke:none;stroke-width:1;stroke-dasharray:none;stroke-linecap:butt;stroke-linejoin:miter;stroke-miterlimit:10;fill-rule:nonzero;opacity:1" transform="translate(1.964 1.964) scale(2.8008)"/>
    </g>
  </g>
</svg>