<svg fill="none" xmlns="http://www.w3.org/2000/svg" viewBox="0 0 21 21">
  <path d="M10.317 7.715v4.172m6.025-2.318v6.953-6.953Zm-12.05 6.953v3.244h12.05v-3.244H4.292Zm0 0H1.047V9.569c0-1.39.927-3.012 2.318-4.171 1.39-1.159 3.244-1.39 3.244-1.39l3.708 3.707-6.025 8.807Zm0 0V9.569v6.953Zm12.05 0h3.245V9.569c0-1.39-.927-3.012-2.318-4.171-1.39-1.159-3.244-1.39-3.244-1.39l-3.708 3.707 6.025 8.807Z" stroke="#F2F3F3" stroke-linecap="round" stroke-linejoin="round"/>
  <path d="M3.365 5.398c1.39-1.159 3.244-1.39 3.244-1.39l3.708 3.707 3.708-3.708s1.854.232 3.244 1.39l.927-2.085-.927-2.086H3.365l-.927 2.086.927 2.086Z" stroke="#F2F3F3" stroke-linecap="round" stroke-linejoin="round"/>
</svg>
