<svg fill="none" xmlns="http://www.w3.org/2000/svg" viewBox="0 0 22 21">
  <path d="m0 20.5 5-14 9 9-14 5Zm3.3-3.3 7.05-2.5-4.55-4.55-2.5 7.05Zm9.25-6.15L11.5 10l5.6-5.6a2.624 2.624 0 0 1 1.925-.8c.75 0 1.392.267 1.925.8l.6.6-1.05 1.05-.6-.6a1.187 1.187 0 0 0-.875-.35c-.35 0-.642.117-.875.35l-5.6 5.6Zm-4-4L7.5 6l.6-.6c.233-.233.35-.517.35-.85 0-.333-.117-.617-.35-.85l-.65-.65L8.5 2l.65.65c.533.533.8 1.167.8 1.9 0 .733-.267 1.367-.8 1.9l-.6.6Zm2 2L9.5 8l3.6-3.6c.233-.233.35-.525.35-.875s-.117-.642-.35-.875l-1.6-1.6L12.55 0l1.6 1.6c.533.533.8 1.175.8 1.925s-.267 1.392-.8 1.925l-3.6 3.6Zm4 4L13.5 12l1.6-1.6a2.624 2.624 0 0 1 1.925-.8c.75 0 1.392.267 1.925.8l1.6 1.6-1.05 1.05-1.6-1.6a1.187 1.187 0 0 0-.875-.35c-.35 0-.642.117-.875.35l-1.6 1.6Z" fill="#F2F3F3"/>
</svg>
