<svg fill="none" xmlns="http://www.w3.org/2000/svg" viewBox="0 0 22 22">
  <path d="m18.347 1.53.193-.194a1.567 1.567 0 1 1 2.216 2.218l-.193.192a1.947 1.947 0 0 1-.077 2.673L7.124 19.783a.65.65 0 0 1-.302.17l-5.193 1.299a.648.648 0 0 1-.787-.787L2.14 15.27a.65.65 0 0 1 .17-.3L14.828 2.45a.65.65 0 0 0-.833.073L9.72 6.8a.65.65 0 0 1-.92-.92l4.277-4.274a1.947 1.947 0 0 1 2.675-.075 1.947 1.947 0 0 1 2.594-.001Zm-.836.994a.649.649 0 0 0-.918 0L3.354 15.761l-.992 3.969 3.969-.992L19.57 5.501a.65.65 0 0 0 0-.919l-2.058-2.058h-.001Z" fill="#F2F3F3"/>
</svg>
