<svg fill="none" xmlns="http://www.w3.org/2000/svg" viewBox="0 0 448 448" style="enable-background:new 0 0 448 448" xml:space="preserve">
  <path fill="#fff" d="M424.807 151.238c-4.284-4.707-10.245-7.311-16.807-7.329h-96V88c0-48.523-39.477-88-88-88s-88 39.477-88 88v55.909H39.977c-6.539.019-12.5 2.621-16.783 7.329-4.273 4.694-6.3 10.851-5.708 17.332 6.69 73.481 13.5 150.628 20.821 235.847 1.094 12.701 11.471 24.62 23.637 27.137C115.156 442.467 169.679 448 224 448s108.845-5.533 162.069-16.449c12.153-2.514 22.529-14.433 23.624-27.136 7.309-85.09 14.12-162.235 20.82-235.842.593-6.483-1.433-12.639-5.706-17.335zM152 88c0-39.701 32.299-72 72-72s72 32.299 72 72v55.909H152V88zm230.841 327.88C330.686 426.576 277.244 432 224 432s-106.686-5.424-158.828-16.117c-5.232-1.082-10.438-7.201-10.924-12.837a58779.583 58779.583 0 0 0-3.498-40.543c57.499 9.043 115.374 13.579 173.249 13.579s115.75-4.535 173.249-13.579c-1.154 13.326-2.319 26.82-3.497 40.541-.485 5.637-5.692 11.757-10.91 12.836zm31.738-248.761a43121.53 43121.53 0 0 0-13.14 147.27c-.072.009-.144.011-.216.022a1146.876 1146.876 0 0 1-40.167 5.495 8 8 0 0 0 1.889 15.889 1163.275 1163.275 0 0 0 37.063-5.022c-.443 5.075-.887 10.177-1.333 15.306-115.922 18.656-233.427 18.656-349.348 0-.446-5.13-.89-10.233-1.333-15.308 57.97 8.793 116.979 13.228 176.059 13.228 16.429 0 32.863-.342 49.282-1.027a8 8 0 0 0-.667-15.986c-75.667 3.159-151.665-1.073-225.89-12.574-.072-.011-.144-.013-.216-.022a42681.642 42681.642 0 0 0-13.141-147.272c-.179-1.96.391-3.774 1.606-5.108 1.227-1.348 3.001-2.093 4.974-2.099h96v17.103c-13.786 3.561-24 16.104-24 30.987 0 17.645 14.355 32 32 32s32-14.355 32-32a8 8 0 0 0-16 0c0 8.822-7.178 16-16 16s-16-7.178-16-16c0-5.907 3.226-11.063 8-13.835V208a8 8 0 0 0 16 0v-48.091h144v17.103c-13.786 3.561-24 16.104-24 30.987 0 17.645 14.355 32 32 32s32-14.355 32-32a8 8 0 0 0-16 0c0 8.822-7.178 16-16 16s-16-7.178-16-16c0-5.907 3.226-11.063 8-13.835V208a8 8 0 0 0 16 0v-48.091h95.977c1.996.006 3.771.751 4.997 2.099 1.214 1.334 1.784 3.148 1.604 5.111z"/><path d="M329.277 323.237c-7.913.718-15.932 1.363-23.835 1.916a8 8 0 0 0 1.117 15.96c8.012-.561 16.143-1.215 24.165-1.943a8 8 0 0 0 7.244-8.69 7.995 7.995 0 0 0-8.691-7.243z"/>
</svg>