<svg fill="none" xmlns="http://www.w3.org/2000/svg" viewBox="0 0 24 18">
  <path d="M22.956 2.926 18.305.262h-.056l-.038-.02h-3.107a.377.377 0 0 0-.377.377 2.636 2.636 0 1 1-5.272 0A.377.377 0 0 0 9.08.243H5.972l-.038.019h-.056L1.227 2.926a1.14 1.14 0 0 0-.452 1.487l1.732 3.465a1.13 1.13 0 0 0 1.008.621H5.69v7.908a1.13 1.13 0 0 0 1.13 1.13h10.544a1.13 1.13 0 0 0 1.13-1.13V8.5h2.174a1.13 1.13 0 0 0 1.008-.621l1.732-3.465a1.139 1.139 0 0 0-.452-1.487ZM3.515 7.746a.348.348 0 0 1-.33-.207L1.453 4.074a.377.377 0 0 1 .15-.499L5.69 1.241v6.505H3.515Zm14.225 8.661a.377.377 0 0 1-.376.377H6.819a.377.377 0 0 1-.376-.377V.967H8.72a3.39 3.39 0 0 0 6.74 0h2.28v15.44Zm4.99-12.333L20.998 7.54a.348.348 0 0 1-.33.207h-2.175V1.241l4.086 2.334a.377.377 0 0 1 .15.5Z" fill="#F2F3F3"/>
</svg>
