<svg xmlns="http://www.w3.org/2000/svg" viewBox="0 0 511.999 511.999" style="enable-background:new 0 0 511.999 511.999" xml:space="preserve"><path d="M509.606 33.205 478.793 2.393a8.17 8.17 0 0 0-11.555 0l-55.84 55.84-17.331-17.331a8.168 8.168 0 0 0-11.556 0l-33.322 33.322c-6.613-4.377-14.381-6.73-22.527-6.73-10.937 0-21.196 4.236-28.887 11.926L187.071 190.125a8.17 8.17 0 0 0 0 11.554 8.14 8.14 0 0 0 5.777 2.393 8.14 8.14 0 0 0 5.777-2.393L309.331 90.974c4.604-4.604 10.759-7.14 17.331-7.14 3.719 0 7.292.839 10.539 2.378L76.367 347.047c-.032.032-.058.066-.089.099a10.802 10.802 0 0 0-.568.652c-.08.102-.156.208-.231.315-.091.13-.181.259-.264.393-.025.039-.053.075-.077.115l-57.771 96.286a8.169 8.169 0 0 0 1.229 9.981l2.232 2.232-13.787 13.787c-9.388 9.388-9.388 24.663 0 34.051 4.694 4.694 10.86 7.041 17.025 7.041 6.165 0 12.332-2.347 17.025-7.041l13.787-13.787 2.232 2.232a8.164 8.164 0 0 0 9.981 1.228l96.286-57.771c.034-.021.063-.045.097-.064a9.071 9.071 0 0 0 .708-.491c.113-.088.224-.182.334-.278.108-.094.215-.187.316-.286.039-.037.081-.069.119-.108.02-.022 306.144-306.147 306.144-306.147a8.17 8.17 0 0 0 0-11.554L453.764 100.6l55.841-55.841a8.17 8.17 0 0 0 .001-11.554zM29.537 493.404a7.688 7.688 0 0 1-5.471 2.266 7.688 7.688 0 0 1-5.471-2.266 7.688 7.688 0 0 1-2.266-5.471c0-2.067.805-4.009 2.266-5.471l13.787-13.787 10.942 10.942-13.787 13.787zm129.638-75.103-9.628-9.628a8.17 8.17 0 0 0-11.554 0 8.17 8.17 0 0 0 0 11.554l8.006 8.006-81.844 49.106-29.494-29.494 49.105-81.843 31.117 31.117c1.595 1.596 3.687 2.393 5.777 2.393s4.182-.797 5.777-2.393a8.17 8.17 0 0 0 0-11.554l-32.739-32.739L349.771 96.752l65.476 65.476-256.072 256.073zm294.591-294.59-26.963 26.962-65.476-65.476 26.963-26.963 17.317 17.317a985214685.454 985214685.454 0 0 1 48.159 48.16zM442.21 89.045l-19.257-19.257 50.063-50.064 19.258 19.258-50.064 50.063z"/></svg>