<svg xmlns="http://www.w3.org/2000/svg" viewBox="0 0 463 463"><path d="M399.5 416h-3.126L245.664 76.902c-1.424-3.203-3.772-5.721-6.664-7.308V52.49l16.463 9.505a7.499 7.499 0 0 0 10.245-2.745 7.5 7.5 0 0 0-2.745-10.245L246.5 39.5l16.463-9.505a7.5 7.5 0 0 0-7.5-12.99L239 26.51V7.5a7.5 7.5 0 0 0-15 0v19.01l-16.463-9.505a7.5 7.5 0 0 0-7.5 12.99L216.5 39.5l-16.463 9.505a7.5 7.5 0 0 0 7.5 12.99L224 52.49v17.104c-2.892 1.587-5.24 4.105-6.664 7.308L66.626 416H63.5C50.542 416 40 426.542 40 439.5S50.542 463 63.5 463h336c12.958 0 23.5-10.542 23.5-23.5S412.458 416 399.5 416zM231.043 82.995c.065-.146.132-.297.457-.297s.392.151.457.297l6.219 13.992-16.021 6.008 8.888-20zM399.5 448h-336c-4.687 0-8.5-3.813-8.5-8.5s3.813-8.5 8.5-8.5H71.475l.026.002.044-.002h263.953a7.5 7.5 0 0 0 0-15h-51.972l30.606-11.477a7.5 7.5 0 1 0-5.267-14.045L240.807 416H112.86l129.271-48.477a7.5 7.5 0 1 0-5.267-14.045L85.621 410.195l25.589-57.576 106.919-40.094a7.5 7.5 0 1 0-5.267-14.045l-93.108 34.915 25.59-57.576 56.456-21.171a7.5 7.5 0 1 0-5.267-14.045l-42.646 15.992 59.723-134.376 30.668-11.5 18.278 41.126-12.94 4.853a7.503 7.503 0 0 0 2.634 14.525c.875 0 1.765-.154 2.632-.479l13.776-5.166 18.278 41.126-18.067 6.775a7.503 7.503 0 0 0 2.634 14.525c.875 0 1.765-.154 2.632-.479l18.903-7.089 18.278 41.126-18.446 6.917a7.503 7.503 0 0 0 2.634 14.525c.875 0 1.765-.154 2.632-.479l19.282-7.231 18.278 41.126-21.833 8.187a7.503 7.503 0 0 0 2.634 14.525c.875 0 1.765-.154 2.632-.479l22.669-8.501 18.278 41.126-19.212 7.205a7.503 7.503 0 0 0 2.634 14.525c.875 0 1.765-.154 2.632-.479l20.049-7.518L379.959 416H367.5a7.5 7.5 0 0 0 0 15h23.977l.027.002.038-.002h7.958c4.687 0 8.5 3.813 8.5 8.5s-3.813 8.5-8.5 8.5z"/><path d="m281.533 336.728-12.667 4.75a7.501 7.501 0 0 0 5.267 14.045l12.667-4.75a7.501 7.501 0 0 0-5.267-14.045zM270.52 284.868a7.5 7.5 0 0 0-9.656-4.389l-12.747 4.78a7.503 7.503 0 0 0 2.634 14.525c.875 0 1.765-.154 2.632-.479l12.747-4.78a7.502 7.502 0 0 0 4.39-9.657zM249.185 228.868a7.5 7.5 0 0 0-9.656-4.389l-11.829 4.436a7.503 7.503 0 0 0 2.634 14.525c.875 0 1.765-.154 2.632-.479l11.829-4.436a7.501 7.501 0 0 0 4.39-9.657zM230.521 171.867a7.501 7.501 0 0 0-9.656-4.389l-10.999 4.125a7.503 7.503 0 0 0 2.634 14.525c.875 0 1.765-.154 2.632-.479l10.999-4.125a7.501 7.501 0 0 0 4.39-9.657z"/></svg>