<?xml version="1.0" encoding="iso-8859-1"?>
<!-- Generator: Adobe Illustrator 19.0.0, SVG Export Plug-In . SVG Version: 6.00 Build 0)  -->
<svg version="1.1" id="Capa_1" xmlns="http://www.w3.org/2000/svg" xmlns:xlink="http://www.w3.org/1999/xlink" x="0px" y="0px"
	 viewBox="0 0 463 463" style="enable-background:new 0 0 463 463;" xml:space="preserve">
<g>
	<path d="M430.997,375.405c-0.246-183.157-8.752-253.847-13.322-291.824l-0.63-5.255c-1.481-12.468-10.208-22.855-22.231-26.462
		l-59.817-17.945V15.5c0-8.547-6.953-15.5-15.5-15.5h-176c-8.547,0-15.5,6.953-15.5,15.5v18.42L68.186,51.863
		c-12.023,3.606-20.75,13.994-22.231,26.462l-0.63,5.261c-4.57,37.979-13.076,108.671-13.322,291.819
		c-0.005,4.166,1.617,8.088,4.569,11.043c1.032,1.034,2.188,1.894,3.426,2.587V407.5c0,8.547,6.953,15.5,15.5,15.5h34.445
		c1.411,2.541,3.514,4.644,6.055,6.055V447.5c0,8.547,6.953,15.5,15.5,15.5h240c8.547,0,15.5-6.953,15.5-15.5v-18.445
		c2.541-1.411,4.643-3.514,6.055-6.055h34.451c8.547,0,15.5-6.953,15.5-15.5v-18.463c1.238-0.693,2.393-1.554,3.426-2.587
		C429.38,383.494,431.003,379.572,430.997,375.405z M415.997,375.425c0,0.2-0.099,0.341-0.182,0.424
		c-0.15,0.15-0.282,0.15-0.325,0.15h-40.493V153.986c0-6.026,1.105-11.931,3.286-17.548l23.132-59.6
		c0.347,1.046,0.6,2.134,0.734,3.257l0.633,5.278C407.315,123.042,415.753,193.158,415.997,375.425z M103.497,416
		c-0.276,0-0.5-0.224-0.5-0.5V153.986c0-7.89-1.448-15.621-4.303-22.976L73.543,66.208c-0.034-0.089-0.078-0.171-0.115-0.258
		l60.845-18.253l57.836,38.557c-0.068,0.406-0.112,0.82-0.112,1.245v73.734c-9.29,3.138-16,11.93-16,22.266v16
		c0,4.142,3.358,7.5,7.5,7.5h32c4.142,0,7.5-3.358,7.5-7.5v-16c0-10.336-6.71-19.128-16-22.266V96.18l20.34,13.56
		c0.086,0.057,0.178,0.097,0.266,0.15c0.12,0.073,0.231,0.156,0.355,0.223c0.068,0.037,0.14,0.062,0.21,0.096
		c0.112,0.056,0.225,0.106,0.34,0.155c0.211,0.092,0.425,0.174,0.642,0.245c0.107,0.035,0.212,0.071,0.32,0.101
		c0.257,0.072,0.515,0.128,0.776,0.172c0.069,0.012,0.137,0.028,0.206,0.038c0.347,0.049,0.696,0.08,1.045,0.08
		c0.172,0,0.343-0.026,0.514-0.037c0.142-0.01,0.285-0.013,0.427-0.031c0.199-0.025,0.394-0.068,0.591-0.109
		c0.127-0.027,0.253-0.051,0.379-0.084c0.199-0.052,0.393-0.116,0.587-0.185c0.119-0.042,0.237-0.087,0.355-0.136
		c0.193-0.079,0.383-0.165,0.57-0.261c0.038-0.02,0.079-0.033,0.117-0.053c0.069-0.037,0.13-0.085,0.197-0.124
		c0.141-0.081,0.288-0.148,0.424-0.239l20.34-13.56v65.054c-9.29,3.138-16,11.93-16,22.266v16c0,4.142,3.358,7.5,7.5,7.5h32
		c4.142,0,7.5-3.358,7.5-7.5v-16c0-10.336-6.71-19.128-16-22.266V87.5c0-0.425-0.044-0.839-0.112-1.245l57.838-38.559l60.844,18.253
		c-0.038,0.087-0.081,0.17-0.116,0.259L364.3,131.01c-2.855,7.355-4.303,15.086-4.303,22.976V415.5c0,0.276-0.224,0.5-0.5,0.5
		H103.497z M263.497,175c4.687,0,8.5,3.813,8.5,8.5v8.5h-17v-8.5C254.997,178.813,258.81,175,263.497,175z M241.674,87.702
		c3.73-10.711,11.183-19.979,21.227-25.838l57.097-33.307v6.929L241.674,87.702z M255.343,48.907
		c-10.232,5.969-18.411,14.635-23.846,24.789c-5.435-10.154-13.614-18.821-23.846-24.789L149.525,15H313.47L255.343,48.907z
		 M199.497,175c4.687,0,8.5,3.813,8.5,8.5v8.5h-17v-8.5C190.997,178.813,194.81,175,199.497,175z M142.997,35.486v-6.929
		l57.097,33.307c10.044,5.859,17.497,15.127,21.227,25.838L142.997,35.486z M60.217,85.379l0.633-5.283
		c0.133-1.121,0.386-2.206,0.732-3.25l23.129,59.592c2.181,5.618,3.286,11.522,3.286,17.548V376H47.51c-0.043,0-0.175,0-0.325-0.15
		c-0.083-0.083-0.183-0.225-0.182-0.424C47.247,193.168,55.684,123.049,60.217,85.379z M54.997,407.5V391h33v17h-32.5
		C55.221,408,54.997,407.776,54.997,407.5z M351.497,448h-240c-0.276,0-0.5-0.224-0.5-0.5V431h241v16.5
		C351.997,447.776,351.773,448,351.497,448z M407.503,408h-32.505v-17h33.005v16.5C408.003,407.776,407.779,408,407.503,408z"/>
	<path d="M302.733,277.526c-0.89-3.263-3.854-5.526-7.236-5.526h-128c-3.382,0-6.346,2.264-7.236,5.526l-24,87.999
		c-0.175,0.644-0.264,1.307-0.264,1.974V391.5c0,4.142,3.358,7.5,7.5,7.5h176c4.142,0,7.5-3.358,7.5-7.5v-24.001
		c0-0.667-0.089-1.33-0.264-1.974L302.733,277.526z M311.997,384h-161v-15.497L173.226,287h116.543l22.229,81.503V384z"/>
</g>
<g>
</g>
<g>
</g>
<g>
</g>
<g>
</g>
<g>
</g>
<g>
</g>
<g>
</g>
<g>
</g>
<g>
</g>
<g>
</g>
<g>
</g>
<g>
</g>
<g>
</g>
<g>
</g>
<g>
</g>
</svg>
