<svg id="Layer_1" data-name="Layer 1" xmlns="http://www.w3.org/2000/svg" viewBox="0 0 122.88 122.87"><defs><style>.cls-1{fill-rule:evenodd;}</style></defs><title>key-chain</title><path class="cls-1" d="M58,58a38.05,38.05,0,0,1,4.51-3.86L62.36,54a5.87,5.87,0,0,0-4.19-1.73h0a5.89,5.89,0,0,0-3.36,1c.2.62.18,1.12-.11,1.4s-.78.31-1.4.11A6,6,0,0,0,54,62.37l.11.11A39.24,39.24,0,0,1,58,58Zm-9.63-9.62c.34-.35,1-.31,1.82,0a2.81,2.81,0,0,0,0-.65,4,4,0,0,0-3.52-3.52,2.29,2.29,0,0,0-1.85.6,2.33,2.33,0,0,0-.61,1.85A3.91,3.91,0,0,0,45.35,49a3.86,3.86,0,0,0,2.36,1.16,2.88,2.88,0,0,0,.66,0c-.35-.8-.39-1.48,0-1.82ZM28.21,28.21c.36-.35,1-.32,1.82,0a14.69,14.69,0,0,0,3.44-9.51A15,15,0,0,0,18.6,3.85,14.68,14.68,0,0,0,3.85,18.6,15,15,0,0,0,18.72,33.47,14.68,14.68,0,0,0,28.22,30c-.33-.79-.36-1.46,0-1.82Zm4.85,2.4a9.78,9.78,0,0,1,.71,1,5.57,5.57,0,0,1,3-.58,7,7,0,0,1,6.23,6.23,5.56,5.56,0,0,1-.5,2.89l1.24,1.25a5.8,5.8,0,0,1,3.14-.58,7.42,7.42,0,0,1,6.62,6.62,5.82,5.82,0,0,1-.49,3,9.39,9.39,0,0,1,5.11-1.52h0a9.25,9.25,0,0,1,6.58,2.71l.6.6A38,38,0,1,1,52.19,65.35l-.6-.6a9.38,9.38,0,0,1-1.21-11.68,5.88,5.88,0,0,1-3,.48,7.4,7.4,0,0,1-6.61-6.62,5.79,5.79,0,0,1,.57-3.14l-1.24-1.24a5.56,5.56,0,0,1-2.89.5A7,7,0,0,1,31,36.82a5.57,5.57,0,0,1,.58-3,8.79,8.79,0,0,1-1-.71,18.48,18.48,0,0,1-11.9,4.25A18.78,18.78,0,0,1,0,18.61,18.6,18.6,0,0,1,31.81,5.5a18.69,18.69,0,0,1,5.5,13.2,18.47,18.47,0,0,1-4.25,11.91Zm3.48,3.8a2,2,0,0,0-1.61.52,2,2,0,0,0-.53,1.61,3.64,3.64,0,0,0,3.14,3.13,1.86,1.86,0,0,0,2.13-2.13,3.43,3.43,0,0,0-1-2.1,3.38,3.38,0,0,0-2.1-1Z"/></svg>