<svg width="25" height="25" viewBox="0 0 25 25" fill="none" xmlns="http://www.w3.org/2000/svg">
<g clip-path="url(#clip0_1081_317)">
<path d="M20.3376 8.90234H15.8186V16.434H20.3376C20.5872 16.4337 20.8265 16.3344 21.003 16.1579C21.1795 15.9814 21.2788 15.7421 21.2791 15.4925V9.8438C21.2788 9.5942 21.1795 9.3549 21.003 9.17841C20.8265 9.00191 20.5872 8.90263 20.3376 8.90234ZM19.7727 14.9277H17.325V10.4087H19.7727V14.9277Z" fill="#F2F3F3"/>
<path d="M21.3061 6.07749H17.325V3.44141H2.26164V19.6345C2.26254 20.4332 2.58023 21.199 3.14502 21.7638C3.70981 22.3285 4.47557 22.6462 5.27431 22.6471H14.3123C15.111 22.6462 15.8768 22.3285 16.4416 21.7638C17.0064 21.199 17.3241 20.4332 17.325 19.6345V19.2579H21.3061C22.0477 19.2571 22.7588 18.9621 23.2832 18.4376C23.8076 17.9132 24.1026 17.2022 24.1035 16.4605V8.87484C24.1026 8.13319 23.8076 7.42216 23.2832 6.89773C22.7588 6.37331 22.0477 6.07832 21.3061 6.07749ZM22.5971 16.4605C22.5967 16.8028 22.4606 17.131 22.2186 17.373C21.9765 17.615 21.6484 17.7512 21.3061 17.7516H15.8186V19.6345C15.8182 20.0338 15.6593 20.4167 15.3769 20.6991C15.0945 20.9815 14.7117 21.1404 14.3123 21.1408H5.27431C4.87494 21.1404 4.49206 20.9815 4.20966 20.6991C3.92727 20.4167 3.76842 20.0338 3.76797 19.6345V4.94774H15.8186V7.58382H21.3061C21.6484 7.5842 21.9765 7.72035 22.2186 7.96238C22.4606 8.20441 22.5967 8.53256 22.5971 8.87484V16.4605Z" fill="#F2F3F3"/>
</g>
<defs>
<clipPath id="clip0_1081_317">
<rect width="24.1013" height="24.1013" fill="white" transform="translate(0.75531 0.429688)"/>
</clipPath>
</defs>
</svg>
