<svg width="22" height="22" viewBox="0 0 22 22" fill="none" xmlns="http://www.w3.org/2000/svg">
<path d="M18.3467 1.52922L18.5402 1.33577C18.6858 1.19025 18.8586 1.07483 19.0488 0.996104C19.239 0.917381 19.4429 0.876893 19.6488 0.876953C19.8546 0.877013 20.0584 0.91762 20.2486 0.996456C20.4388 1.07529 20.6115 1.19081 20.757 1.33642C20.9026 1.48203 21.018 1.65487 21.0967 1.84509C21.1754 2.0353 21.2159 2.23916 21.2158 2.44502C21.2158 2.65088 21.1752 2.85471 21.0963 3.04488C21.0175 3.23505 20.902 3.40783 20.7564 3.55335L20.5629 3.7455C20.8939 4.11665 21.0703 4.60033 21.056 5.09738C21.0418 5.59443 20.838 6.06721 20.4863 6.4188L7.12418 19.7827C7.04064 19.8658 6.93607 19.9246 6.82167 19.9528L1.62844 21.2511C1.51976 21.2782 1.40593 21.2767 1.29801 21.2467C1.1901 21.2168 1.09176 21.1594 1.01257 21.0802C0.933372 21.001 0.876015 20.9027 0.846069 20.7948C0.816123 20.6868 0.814607 20.573 0.841669 20.4643L2.13998 15.2709C2.16838 15.157 2.22716 15.0529 2.31005 14.9697L14.8283 2.45105C14.7031 2.36293 14.5508 2.3219 14.3983 2.3352C14.2458 2.34851 14.1029 2.41529 13.9948 2.52376L9.72079 6.79922C9.66043 6.85958 9.58878 6.90745 9.50992 6.94012C9.43106 6.97278 9.34654 6.9896 9.26119 6.9896C9.17583 6.9896 9.09131 6.97278 9.01245 6.94012C8.9336 6.90745 8.86194 6.85958 8.80159 6.79922C8.74123 6.73886 8.69336 6.66721 8.66069 6.58835C8.62803 6.50948 8.61121 6.42496 8.61121 6.3396C8.61121 6.25424 8.62803 6.16972 8.66069 6.09086C8.69336 6.012 8.74123 5.94035 8.80159 5.87999L13.0782 1.60583C13.43 1.25399 13.9031 1.05016 14.4005 1.03616C14.8978 1.02215 15.3817 1.19904 15.7527 1.53052C16.1094 1.2117 16.5711 1.03535 17.0495 1.03511C17.5279 1.03487 17.9897 1.21076 18.3467 1.52922ZM17.5106 2.52376C17.3889 2.40206 17.2238 2.33369 17.0517 2.33369C16.8795 2.33369 16.7145 2.40206 16.5927 2.52376L3.35389 15.7604L2.36199 19.7295L6.33091 18.7375L19.5697 5.50087C19.6302 5.44057 19.6782 5.36893 19.7109 5.29006C19.7436 5.21119 19.7605 5.12664 19.7605 5.04125C19.7605 4.95587 19.7436 4.87132 19.7109 4.79245C19.6782 4.71358 19.6302 4.64194 19.5697 4.58164L17.5119 2.52376H17.5106Z" fill="#F2F3F3"/>
</svg>
