<svg width="1000" height="1000" xmlns="http://www.w3.org/2000/svg" xml:space="preserve"><path d="M288.63 73.23C275 81.3 246.58 98 225.65 109.91c-79.69 46.28-124.24 87.75-172.82 160.91-17.09 26.11-37.64 62.22-41.67 73.74-3.26 9.79.38 18.05 10.95 24.58 4.42 2.69 49.73 26.12 100.81 51.85 78.15 39.56 93.71 46.85 98.31 45.7 3.46-.96 7.49-4.99 12.29-11.91 3.84-5.95 7.1-10.37 7.49-10.18 2.3 2.5-19.01 230.24-38.79 414.58-3.84 36.48-6.53 68.55-5.76 71.43 2.88 11.52-15.17 10.95 304.36 10.95H792.7l5.38-4.61 5.19-4.61-5.19-69.7c-13.83-182.61-28.23-389.8-28.23-406.7v-7.87l9.22 9.6c5.38 5.57 10.95 9.6 13.25 9.6 3.84 0 44.55-21.7 147.09-78.54 38.79-21.7 49.54-28.42 50.5-32.07 1.34-5.38-10.18-27.84-33.03-64.52-36.48-58.57-63.75-93.9-92.75-120.59-29.19-27.08-44.55-37.06-94.28-62.41-25.92-13.06-54.73-28.23-64.14-33.6-26.11-15.17-23.23-14.98-47.81-2.88-25.16 12.1-59.14 23.81-87.75 30.15-17.67 3.84-25.54 4.42-64.33 4.42-38.6 0-46.85-.58-65.86-4.42-36.68-7.3-78.15-22.47-104.46-38.02-6.34-3.65-13.63-6.53-16.51-6.34-2.9 0-16.54 6.72-30.36 14.78zm28.8 34.38c15.17 31.3 46.09 69.51 72.2 89.29 16.71 12.67 46.85 27.08 68.17 32.45 22.08 5.57 62.02 6.14 82.19 1.15 53.19-13.25 101.2-52.42 136.72-111.76 5.19-8.45 9.41-15.55 9.6-15.75.58-.96 90.25 47.43 90.83 49.16.38.96-2.11 6.34-5.57 11.91-14.4 24.39-25.92 57.03-32.84 93.32-4.03 20.35-4.42 28.23-4.22 78.34 0 30.53 1.15 71.62 2.3 91.21 1.34 19.59 4.61 68.36 7.29 108.49 7.88 121.93 26.5 363.31 28.42 371.95.77 3.26-13.25 3.46-271.71 3.46-149.78 0-272.48-.38-272.48-.77 0-.38 4.22-40.52 9.6-88.91 31.68-292.07 43.21-446.26 38.4-510.01-4.61-62.6-19.01-114.45-41.48-150.35-4.8-7.87-8.26-14.98-7.49-15.75 1.54-1.73 82.19-48.2 83.53-48.2.59-.18 3.47 4.81 6.54 10.77zm55.31 8.25c43.01 16.71 90.63 24 149.2 22.47 43.78-.96 61.06-3.84 98.7-15.94 11.52-3.84 21.31-6.53 21.7-6.14 1.35 1.54-23.81 31.49-35.52 42.44-32.64 29.96-67.78 45.32-104.27 45.51-41.86 0-80.46-16.9-112.72-49.73-13.83-14.03-36.68-44.37-33.42-44.37.77 0 8.26 2.69 16.33 5.76zm-163.99 55.69c14.21 21.7 27.65 62.6 33.99 103.69 1.92 12.1 3.65 38.6 4.23 66.44l1.15 46.28-16.9 22.85c-9.22 12.48-17.09 23.24-17.47 23.43-.58.77-162.07-85.45-164.75-88.14-.96-.77 3.46-10.37 10.37-22.27 28.8-49.54 58.76-90.25 86.99-118.09 15.94-15.75 50.69-43.78 54.15-43.78 1.13-.01 4.78 4.21 8.24 9.59zm611.2 5.57c31.11 23.43 61.64 57.22 91.79 101.96 14.4 21.31 43.21 69.13 42.05 70.09-.96.58-148.05 81.03-152.66 83.34-3.84 1.92-5.19.58-19.2-18.43l-14.98-20.55-2.3-33.8c-4.61-66.06 4.03-121.93 25.73-166.1 6.91-14.21 14.21-25.92 16.13-25.92.58 0 6.72 4.22 13.44 9.41z"/></svg>