<svg width="24" height="18" viewBox="0 0 24 18" fill="none" xmlns="http://www.w3.org/2000/svg">
<path d="M22.9558 2.92534L18.305 0.261017H18.2485L18.2109 0.242188H15.1041C15.0042 0.242188 14.9084 0.281863 14.8378 0.352486C14.7672 0.423109 14.7275 0.518894 14.7275 0.61877C14.7275 1.3179 14.4498 1.9884 13.9554 2.48276C13.461 2.97712 12.7905 3.25485 12.0914 3.25485C11.3923 3.25485 10.7218 2.97712 10.2274 2.48276C9.73305 1.9884 9.45532 1.3179 9.45532 0.61877C9.45532 0.518894 9.41564 0.423109 9.34502 0.352486C9.2744 0.281863 9.17861 0.242188 9.07874 0.242188H5.97193L5.93427 0.261017H5.87778L1.22698 2.92534C0.977265 3.06994 0.79173 3.30392 0.707851 3.58002C0.623971 3.85613 0.648 4.15377 0.775083 4.41284L2.50736 7.87741C2.60139 8.064 2.74532 8.22087 2.92316 8.33056C3.101 8.44026 3.30578 8.49848 3.51472 8.49877H5.68949V16.407C5.68949 16.7066 5.80852 16.994 6.02038 17.2059C6.23225 17.4177 6.51961 17.5368 6.81924 17.5368H17.3636C17.6632 17.5368 17.9505 17.4177 18.1624 17.2059C18.3743 16.994 18.4933 16.7066 18.4933 16.407V8.49877H20.6681C20.877 8.49848 21.0818 8.44026 21.2596 8.33056C21.4375 8.22087 21.5814 8.064 21.6754 7.87741L23.4077 4.41284C23.5348 4.15377 23.5588 3.85613 23.4749 3.58002C23.3911 3.30392 23.2055 3.06994 22.9558 2.92534ZM3.51472 7.7456C3.44542 7.74779 3.37705 7.72925 3.31834 7.69235C3.25964 7.65545 3.21329 7.60188 3.18521 7.53848L1.45293 4.07392C1.40885 3.98737 1.39991 3.88714 1.42798 3.79416C1.45605 3.70118 1.51896 3.62264 1.60356 3.57495L5.68949 1.24013V7.7456H3.51472ZM17.7401 16.407C17.7401 16.5069 17.7005 16.6027 17.6298 16.6733C17.5592 16.7439 17.4634 16.7836 17.3636 16.7836H6.81924C6.71936 16.7836 6.62358 16.7439 6.55295 16.6733C6.48233 16.6027 6.44266 16.5069 6.44266 16.407V0.96711H8.72098C8.8091 1.79957 9.20218 2.56998 9.82448 3.12989C10.4468 3.6898 11.2543 3.99959 12.0914 3.99959C12.9285 3.99959 13.736 3.6898 14.3583 3.12989C14.9806 2.56998 15.3737 1.79957 15.4618 0.96711H17.7401V16.407ZM22.7299 4.07392L20.9976 7.53848C20.9695 7.60188 20.9232 7.65545 20.8645 7.69235C20.8058 7.72925 20.7374 7.74779 20.6681 7.7456H18.4933V1.24013L22.5792 3.57495C22.6638 3.62264 22.7267 3.70118 22.7548 3.79416C22.7829 3.88714 22.7739 3.98737 22.7299 4.07392Z" fill="#F2F3F3"/>
</svg>
