<svg width="258" height="244" viewBox="0 0 258 244" fill="none" xmlns="http://www.w3.org/2000/svg">
<ellipse cx="56.4715" cy="202.086" rx="189.813" ry="189.273" transform="rotate(-93.7367 56.4715 202.086)" fill="url(#paint0_radial_1024_748)"/>
<circle cx="56.4598" cy="201.906" r="154.729" transform="rotate(-93.7367 56.4598 201.906)" fill="#EA1889"/>
<path d="M46.376 47.5059C8.91722 49.9524 -26.3748 65.9331 -52.9248 92.4707C-79.4748 119.008 -95.4719 154.293 -97.9358 191.751C-100.4 229.208 -89.1622 266.284 -66.3171 296.071C-43.472 325.858 -10.5773 346.323 26.2383 353.655C63.0539 360.987 101.279 354.685 133.793 335.924C166.307 317.162 190.891 287.22 202.966 251.676C215.041 216.133 213.782 177.412 199.425 142.727C185.067 108.043 158.591 79.7605 124.927 63.1498L56.4598 201.906L46.376 47.5059Z" fill="#9F18D9"/>
<path d="M46.376 47.5059C12.3872 49.7257 -19.9194 63.0987 -45.5332 85.5509C-71.147 108.003 -88.6365 138.28 -95.2893 171.685C-101.942 205.09 -97.3863 239.757 -82.3286 270.309C-67.2708 300.861 -42.5526 325.591 -12.0075 340.663C18.5375 355.735 53.2024 360.307 86.6106 353.669C120.019 347.032 150.304 329.557 172.768 303.953C195.232 278.35 208.62 246.05 210.855 212.062C213.091 178.074 204.049 144.299 185.133 115.973L56.4598 201.906L46.376 47.5059Z" fill="#57F2B9"/>
<path d="M46.376 47.5059C15.8385 49.5003 -13.4218 60.5053 -37.7048 79.1293C-61.9878 97.7534 -80.2028 123.16 -90.0464 152.136C-99.89 181.112 -100.92 212.357 -93.0065 241.918C-85.0928 271.48 -68.5909 298.031 -45.5874 318.214C-22.5838 338.397 5.88805 351.306 36.2279 355.307C66.5677 359.309 97.4127 354.223 124.862 340.695C152.312 327.166 175.134 305.801 190.441 279.302C205.749 252.803 212.855 222.36 210.86 191.822L56.4598 201.906L46.376 47.5059Z" fill="#EA1889"/>
<path d="M46.376 47.5059C19.2731 49.276 -6.8864 58.1492 -29.4732 73.2336C-52.06 88.318 -70.2782 109.082 -82.2967 133.439C-94.3152 157.796 -99.7106 184.887 -97.9405 211.99C-96.1704 239.093 -87.2973 265.252 -72.2129 287.839C-57.1285 310.426 -36.3643 328.644 -12.0075 340.663C12.3494 352.681 39.4407 358.077 66.5436 356.307C93.6466 354.536 119.806 345.663 142.393 330.579C164.98 315.495 183.198 294.73 195.216 270.374L56.4598 201.906L46.376 47.5059Z" fill="#9F18D9"/>
<path d="M46.376 47.5059C22.6929 49.0527 -0.316963 56.0268 -20.8736 67.8888C-41.4302 79.7508 -58.9826 96.1827 -72.1728 115.913C-85.3631 135.644 -93.8377 158.145 -96.941 181.674C-100.044 205.204 -97.6932 229.132 -90.0696 251.608C-82.4459 274.084 -69.754 294.505 -52.9758 311.291C-36.1975 328.077 -15.7826 340.778 6.6896 348.412C29.1618 356.047 53.0891 358.409 76.6203 355.316C100.152 352.224 122.656 343.76 142.393 330.579L56.4598 201.906L46.376 47.5059Z" fill="#57F2B9"/>
<path d="M46.376 47.5059C5.4265 50.1803 -32.7834 69.0123 -59.848 99.8591C-86.9126 130.706 -100.615 171.041 -97.9405 211.99C-95.2661 252.94 -76.4341 291.149 -45.5874 318.214C-14.7406 345.279 25.5941 358.981 66.5436 356.307L56.4598 201.906L46.376 47.5059Z" fill="#EA1889"/>
<path d="M46.376 47.5059C12.3872 49.7257 -19.9194 63.0987 -45.5332 85.5509C-71.147 108.003 -88.6365 138.28 -95.2893 171.685C-101.942 205.09 -97.3863 239.757 -82.3286 270.309C-67.2708 300.861 -42.5526 325.591 -12.0075 340.663L56.4598 201.906L46.376 47.5059Z" fill="#9F18D9"/>
<path d="M46.376 47.5059C19.2731 49.276 -6.8864 58.1492 -29.4732 73.2336C-52.06 88.318 -70.2782 109.082 -82.2967 133.439C-94.3152 157.796 -99.7106 184.887 -97.9405 211.99C-96.1704 239.093 -87.2973 265.252 -72.2129 287.839L56.4598 201.906L46.376 47.5059Z" fill="#57F2B9"/>
<path d="M46.376 47.5059C26.0999 48.8302 6.2831 54.1351 -11.9428 63.1179C-30.1688 72.1006 -46.447 84.5853 -59.848 99.8591C-73.2491 115.133 -83.5105 132.897 -90.0464 152.136C-96.5823 171.376 -99.2647 191.714 -97.9405 211.99L56.4598 201.906L46.376 47.5059Z" fill="#EA1889"/>
<path d="M46.376 47.5059C19.2731 49.276 -6.8864 58.1492 -29.4732 73.2336C-52.06 88.318 -70.2782 109.082 -82.2967 133.439L56.4598 201.906L46.376 47.5059Z" fill="#9F18D9"/>
<path d="M46.376 47.5059C19.2731 49.276 -6.8864 58.1492 -29.4732 73.2336L56.4598 201.906L46.376 47.5059Z" fill="#57F2B9"/>
<circle cx="56.2919" cy="202.097" r="25.0086" transform="rotate(-93.7367 56.2919 202.097)" fill="#D396ED"/>
<circle cx="56.292" cy="202.098" r="14.9332" transform="rotate(-93.7367 56.292 202.098)" fill="#57F2B9"/>
<defs>
<radialGradient id="paint0_radial_1024_748" cx="0" cy="0" r="1" gradientUnits="userSpaceOnUse" gradientTransform="translate(-57.8204 -122.964) rotate(47.6614) scale(659.165 661.044)">
<stop offset="0.169475" stop-color="#4B00CC"/>
<stop offset="1" stop-color="#4B00CC" stop-opacity="0"/>
</radialGradient>
</defs>
</svg>
