<svg width="347" height="211" viewBox="0 0 347 211" fill="none" xmlns="http://www.w3.org/2000/svg">
<ellipse cx="104.888" cy="241.558" rx="189.813" ry="189.273" transform="rotate(19.3911 104.888 241.558)" fill="url(#paint0_radial_689_173)"/>
<circle cx="105.057" cy="241.617" r="154.729" transform="rotate(19.3911 105.057 241.617)" fill="#EA1889"/>
<path d="M251.009 292.99C263.473 257.58 262.639 218.848 248.662 184.008C234.686 149.168 208.52 120.598 175.041 103.619C141.561 86.6406 103.051 82.4121 66.6852 91.7215C30.3193 101.031 -1.42221 123.243 -22.6255 154.22C-43.8287 185.197 -53.0476 222.826 -48.5646 260.096C-44.0815 297.366 -26.2023 331.735 1.74198 356.8C29.6863 381.865 65.7898 395.917 103.326 396.337C140.862 396.757 177.271 383.517 205.769 359.083L105.057 241.617L251.009 292.99Z" fill="#9F18D9"/>
<path d="M251.009 292.99C262.318 260.86 262.709 225.898 252.122 193.524C241.535 161.15 220.562 133.174 192.454 113.934C164.347 94.6953 130.677 85.2684 96.6657 87.1157C62.6546 88.9629 30.2035 101.981 4.34525 124.151C-21.513 146.322 -39.3332 176.405 -46.3516 209.735C-53.37 243.065 -49.1943 277.78 -34.4722 308.495C-19.75 339.21 4.69579 364.209 35.0739 379.615C65.452 395.021 100.065 399.972 133.544 393.702L105.057 241.617L251.009 292.99Z" fill="#57F2B9"/>
<path d="M251.009 292.99C261.17 264.123 262.542 232.892 254.953 203.245C247.364 173.599 231.154 146.868 208.373 126.434C185.592 106.001 157.263 92.7809 126.969 88.4473C96.6746 84.1136 65.7756 88.8605 38.1793 102.088C10.583 115.315 -12.4713 136.428 -28.0681 162.758C-43.665 189.088 -51.1039 219.451 -49.4442 250.009C-47.7845 280.566 -37.1007 309.945 -18.7439 334.431C-0.387051 358.917 24.8184 377.409 53.685 387.569L105.057 241.617L251.009 292.99Z" fill="#EA1889"/>
<path d="M251.009 292.99C260.027 267.37 262.142 239.827 257.142 213.131C252.141 186.435 240.202 161.525 222.523 140.905C204.844 120.286 182.05 104.683 156.43 95.6651C130.81 86.6473 103.267 84.5324 76.571 89.5328C49.8746 94.5332 24.9648 106.473 4.34523 124.151C-16.2743 141.83 -31.8771 164.625 -40.8948 190.245C-49.9125 215.865 -52.0275 243.407 -47.0271 270.104C-42.0267 296.8 -30.0872 321.71 -12.4085 342.329L105.057 241.617L251.009 292.99Z" fill="#9F18D9"/>
<path d="M251.009 292.99C258.889 270.602 261.514 246.702 258.679 223.139C255.845 199.575 247.628 176.979 234.664 157.099C221.7 137.219 204.336 120.588 183.916 108.492C163.497 96.3957 140.568 89.1593 116.904 87.3421C93.2401 85.525 69.4754 89.1759 47.4482 98.0124C25.421 106.849 5.72178 120.634 -10.1255 138.302C-25.9728 155.969 -37.5434 177.046 -43.9422 199.901C-50.341 222.755 -51.3966 246.776 -47.0271 270.104L105.057 241.617L251.009 292.99Z" fill="#57F2B9"/>
<path d="M251.009 292.99C264.634 254.281 262.324 211.745 244.587 174.739C226.85 137.734 195.139 109.29 156.43 95.6651C117.721 82.0403 75.1848 84.3506 38.1793 102.088C1.17381 119.825 -27.27 151.536 -40.8948 190.245L105.057 241.617L251.009 292.99Z" fill="#EA1889"/>
<path d="M251.009 292.99C262.318 260.86 262.709 225.898 252.122 193.524C241.535 161.15 220.562 133.174 192.454 113.934C164.347 94.6953 130.677 85.2684 96.6657 87.1157C62.6546 88.9629 30.2035 101.981 4.34525 124.151L105.057 241.617L251.009 292.99Z" fill="#9F18D9"/>
<path d="M251.009 292.99C260.027 267.37 262.142 239.827 257.142 213.131C252.141 186.435 240.202 161.525 222.523 140.905C204.844 120.286 182.05 104.683 156.43 95.6651C130.81 86.6473 103.267 84.5324 76.571 89.5328L105.057 241.617L251.009 292.99Z" fill="#57F2B9"/>
<path d="M251.009 292.99C257.756 273.823 260.661 253.515 259.559 233.226C258.457 212.936 253.369 193.062 244.587 174.739C235.804 156.416 223.499 140.002 208.373 126.434C193.247 112.867 175.596 102.411 156.43 95.6651L105.057 241.617L251.009 292.99Z" fill="#EA1889"/>
<path d="M251.009 292.99C260.027 267.37 262.142 239.827 257.142 213.131C252.141 186.435 240.202 161.525 222.523 140.905L105.057 241.617L251.009 292.99Z" fill="#9F18D9"/>
<path d="M251.009 292.99C260.027 267.37 262.142 239.827 257.142 213.131L105.057 241.617L251.009 292.99Z" fill="#57F2B9"/>
<circle cx="104.947" cy="241.388" r="25.0086" transform="rotate(19.3911 104.947 241.388)" fill="#D396ED"/>
<defs>
<radialGradient id="paint0_radial_689_173" cx="0" cy="0" r="1" gradientUnits="userSpaceOnUse" gradientTransform="translate(-9.40446 -83.4921) rotate(47.6614) scale(659.165 661.044)">
<stop offset="0.169475" stop-color="#4B00CC"/>
<stop offset="1" stop-color="#4B00CC" stop-opacity="0"/>
</radialGradient>
</defs>
</svg>
