<svg width="240" height="294" viewBox="0 0 240 294" fill="none" xmlns="http://www.w3.org/2000/svg">
<ellipse cx="-2.112" cy="241.558" rx="189.813" ry="189.273" transform="rotate(19.3911 -2.112 241.558)" fill="url(#paint0_radial_1524_1584)"/>
<circle cx="-1.94268" cy="241.617" r="154.729" transform="rotate(19.3911 -1.94268 241.617)" fill="#EA1889"/>
<path d="M144.009 292.99C156.473 257.581 155.639 218.848 141.662 184.008C127.686 149.169 101.52 120.598 68.0408 103.619C34.5613 86.6408 -3.94885 82.4123 -40.3148 91.7217C-76.6807 101.031 -108.422 123.243 -129.625 154.22C-150.829 185.197 -160.048 222.826 -155.565 260.096C-151.082 297.366 -133.202 331.735 -105.258 356.8C-77.3137 381.865 -41.2102 395.917 -3.67396 396.337C33.8623 396.757 70.2712 383.517 98.7694 359.083L-1.94268 241.617L144.009 292.99Z" fill="#9F18D9"/>
<path d="M144.009 292.99C155.318 260.861 155.709 225.898 145.122 193.524C134.535 161.15 113.562 133.174 85.4544 113.935C57.347 94.6956 23.6768 85.2686 -10.3343 87.1159C-44.3454 88.9632 -76.7965 101.981 -102.655 124.152C-128.513 146.322 -146.333 176.405 -153.352 209.735C-160.37 243.065 -156.194 277.78 -141.472 308.495C-126.75 339.211 -102.304 364.21 -71.9261 379.615C-41.548 395.021 -6.93538 399.973 26.5436 393.702L-1.94268 241.617L144.009 292.99Z" fill="#57F2B9"/>
<path d="M144.009 292.99C154.17 264.123 155.542 232.892 147.953 203.245C140.364 173.599 124.154 146.868 101.373 126.435C78.5916 106.001 50.2629 92.7812 19.9687 88.4475C-10.3254 84.1138 -41.2244 88.8608 -68.8207 102.088C-96.417 115.315 -119.471 136.429 -135.068 162.758C-150.665 189.088 -158.104 219.452 -156.444 250.009C-154.785 280.567 -144.101 309.946 -125.744 334.431C-107.387 358.917 -82.1816 377.409 -53.315 387.57L-1.94268 241.617L144.009 292.99Z" fill="#EA1889"/>
<path d="M144.009 292.99C153.027 267.37 155.142 239.828 150.142 213.131C145.141 186.435 133.202 161.525 115.523 140.905C97.8445 120.286 75.0496 104.683 49.4297 95.6653C23.8097 86.6476 -3.7326 84.5326 -30.429 89.533C-57.1254 94.5334 -82.0352 106.473 -102.655 124.152C-123.274 141.83 -138.877 164.625 -147.895 190.245C-156.913 215.865 -159.027 243.407 -154.027 270.104C-149.027 296.8 -137.087 321.71 -119.408 342.33L-1.94268 241.617L144.009 292.99Z" fill="#9F18D9"/>
<path d="M144.009 292.99C151.889 270.603 154.514 246.703 151.679 223.139C148.845 199.575 140.628 176.979 127.664 157.099C114.7 137.219 97.3362 120.588 76.9164 108.492C56.4966 96.396 33.5679 89.1595 9.90401 87.3424C-13.7599 85.5252 -37.5246 89.1762 -59.5518 98.0127C-81.579 106.849 -101.278 120.634 -117.126 138.302C-132.973 155.97 -144.543 177.046 -150.942 199.901C-157.341 222.756 -158.397 246.776 -154.027 270.104L-1.94268 241.617L144.009 292.99Z" fill="#57F2B9"/>
<path d="M144.009 292.99C157.634 254.281 155.324 211.745 137.587 174.739C119.85 137.734 88.1386 109.29 49.4297 95.6653C10.7208 82.0405 -31.8152 84.3508 -68.8207 102.088C-105.826 119.825 -134.27 151.536 -147.895 190.245L-1.94268 241.617L144.009 292.99Z" fill="#EA1889"/>
<path d="M144.009 292.99C155.318 260.861 155.709 225.898 145.122 193.524C134.535 161.15 113.562 133.174 85.4544 113.935C57.347 94.6956 23.6768 85.2686 -10.3343 87.1159C-44.3454 88.9632 -76.7965 101.981 -102.655 124.152L-1.94268 241.617L144.009 292.99Z" fill="#9F18D9"/>
<path d="M144.009 292.99C153.027 267.37 155.142 239.828 150.142 213.131C145.141 186.435 133.202 161.525 115.523 140.905C97.8445 120.286 75.0496 104.683 49.4297 95.6653C23.8097 86.6476 -3.7326 84.5326 -30.429 89.533L-1.94268 241.617L144.009 292.99Z" fill="#57F2B9"/>
<path d="M144.009 292.99C150.756 273.823 153.661 253.515 152.559 233.226C151.457 212.936 146.369 193.063 137.587 174.739C128.804 156.416 116.499 140.002 101.373 126.435C86.2466 112.867 68.5964 102.412 49.4297 95.6653L-1.94268 241.617L144.009 292.99Z" fill="#EA1889"/>
<path d="M144.009 292.99C153.027 267.37 155.142 239.828 150.142 213.131C145.141 186.435 133.202 161.525 115.523 140.905L-1.94268 241.617L144.009 292.99Z" fill="#9F18D9"/>
<path d="M144.009 292.99C153.027 267.37 155.142 239.828 150.142 213.131L-1.94268 241.617L144.009 292.99Z" fill="#57F2B9"/>
<circle cx="-2.05213" cy="241.388" r="25.0086" transform="rotate(19.3911 -2.05213 241.388)" fill="#D396ED"/>
<circle cx="-2.05262" cy="241.388" r="14.9332" transform="rotate(19.3911 -2.05262 241.388)" fill="#57F2B9"/>
<defs>
<radialGradient id="paint0_radial_1524_1584" cx="0" cy="0" r="1" gradientUnits="userSpaceOnUse" gradientTransform="translate(-116.404 -83.4921) rotate(47.6614) scale(659.165 661.044)">
<stop offset="0.169475" stop-color="#4B00CC"/>
<stop offset="1" stop-color="#4B00CC" stop-opacity="0"/>
</radialGradient>
</defs>
</svg>
