<svg viewBox="0 0 161 161" fill="none" xmlns="http://www.w3.org/2000/svg">
<path d="M80.3365 5.15729C30.0114 6.47799 2.77976 43.8224 5.30796 85.1164C7.64749 123.278 39.3318 156.233 81.7578 155.516C128.146 154.724 154.107 118.889 155.466 81.0788C156.975 39.3572 121.329 4.07557 80.3365 5.15729Z" fill="#D396ED"/>
<path d="M80.8271 22.0493C42.6776 23.0681 21.5338 52.6015 23.0431 84.4997C24.4016 113.366 49.5075 139.479 81.6446 138.07C114.461 136.636 136.058 110.977 137.529 80.613C139.076 48.4256 111.895 21.2191 80.8271 22.0493Z" fill="#57F2B9"/>
<path d="M40.3254 73.1548C43.47 74.1736 45.5831 63.5325 56.5512 54.7027C67.5068 45.8854 79.4686 45.3697 79.1667 40.4013C78.8648 35.433 66.249 36.3512 58.5763 40.9045C51.0672 45.3697 44.4762 51.143 40.8286 60.1741C38.7154 65.3941 37.9733 72.4001 40.3254 73.1548Z" fill="#DEDEDE"/>
<path d="M50.2622 18.5901C48.6899 16.4518 41.948 18.1876 34.2377 25.0804C27.7599 30.8789 24.5022 38.2623 26.9298 40.388C29.3699 42.5137 34.5395 35.8222 39.9104 30.9544C45.2813 26.0867 53.0923 22.4516 50.2622 18.5901ZM139.001 106.121C134.825 104.637 133.328 111.429 131.391 114.536C122.674 128.536 110.599 135.24 103.505 138.372C99.1408 140.296 95.1913 140.397 96.512 144.661C97.5308 147.944 104.625 145.176 107.065 144.158C111.43 142.334 119.844 137.655 126.435 131.68C132.825 125.894 137.026 120.033 139.215 114.234C139.705 112.876 142.133 107.228 139.001 106.121Z" fill="white"/>
<path d="M65.7781 76.2064C65.7781 76.6223 65.6991 77.0008 65.541 77.3419C65.3913 77.6746 65.1792 77.9616 64.9047 78.2029C64.6301 78.4441 64.3057 78.6313 63.9313 78.7644C63.5653 78.8975 63.166 78.9641 62.7334 78.9641C62.2593 78.9641 61.8516 78.9058 61.5106 78.7894C61.1778 78.6729 60.895 78.5273 60.662 78.3526C60.4374 78.1696 60.2586 77.97 60.1255 77.7537C59.9924 77.5291 59.8884 77.3128 59.8135 77.1048C59.747 76.8968 59.7012 76.7055 59.6762 76.5308C59.6596 76.3561 59.6513 76.223 59.6513 76.1315C59.7511 76.2979 59.8676 76.406 60.0007 76.4559C60.1338 76.4975 60.2461 76.5183 60.3376 76.5183C60.5705 76.5183 60.7327 76.4559 60.8242 76.3311C60.9241 76.2064 60.974 76.0733 60.974 75.9318C60.974 75.8403 60.9532 75.7447 60.9116 75.6448C60.8783 75.545 60.8118 75.4535 60.7119 75.3703C60.6204 75.2788 60.4915 75.2039 60.3251 75.1457C60.1671 75.0875 59.9674 75.0583 59.7262 75.0583C59.5598 75.0583 59.3892 75.0916 59.2145 75.1582C59.0398 75.2164 58.8776 75.3121 58.7279 75.4452C58.5865 75.57 58.47 75.728 58.3785 75.9194C58.287 76.1107 58.2412 76.3353 58.2412 76.5932C58.2412 76.8427 58.2912 77.0923 58.391 77.3419C58.4991 77.5831 58.6405 77.8119 58.8152 78.0282C58.9983 78.2445 59.2104 78.44 59.4516 78.6147C59.7012 78.7894 59.9716 78.9349 60.2627 79.0514C60.7203 79.2427 61.1903 79.4299 61.6728 79.6129C62.1636 79.7959 62.6378 79.9956 63.0953 80.2119C63.5528 80.4282 63.9813 80.6777 64.3806 80.9606C64.7882 81.2351 65.1417 81.5637 65.4412 81.9464C65.749 82.329 65.9903 82.7783 66.165 83.294C66.348 83.8015 66.4395 84.3963 66.4395 85.0784C66.4395 86.0517 66.2398 86.9418 65.8405 87.7488C65.4495 88.5474 64.9213 89.2337 64.2558 89.8077C63.5986 90.3734 62.8333 90.8101 61.9598 91.1179C61.0946 91.434 60.1879 91.5921 59.2395 91.5921C58.3827 91.5921 57.5674 91.4632 56.7938 91.2053C56.0201 90.9557 55.3421 90.6105 54.7598 90.1696C54.1775 89.7287 53.7116 89.2129 53.3622 88.6223C53.0211 88.0233 52.8506 87.3786 52.8506 86.6881C52.8506 86.1807 52.9338 85.7356 53.1002 85.3529C53.2666 84.9703 53.4953 84.6542 53.7865 84.4046C54.086 84.1467 54.4312 83.9554 54.8222 83.8306C55.2215 83.7058 55.6458 83.6434 56.095 83.6434C56.4444 83.6434 56.7854 83.6809 57.1182 83.7557C57.4593 83.8306 57.7754 83.9429 58.0665 84.0926C58.366 84.2341 58.6322 84.4088 58.8652 84.6167C59.1064 84.8247 59.2977 85.0618 59.4392 85.328C59.2645 85.2781 59.1106 85.2531 58.9775 85.2531C58.7528 85.2531 58.574 85.3197 58.4409 85.4528C58.3078 85.5859 58.2412 85.7855 58.2412 86.0517C58.2412 86.1932 58.2745 86.3263 58.3411 86.451C58.4076 86.5675 58.4908 86.6715 58.5906 86.763C58.6988 86.8545 58.8194 86.9252 58.9525 86.9751C59.0939 87.025 59.2395 87.05 59.3892 87.05C59.5556 87.05 59.7095 87.0167 59.8509 86.9502C59.9924 86.8753 60.1171 86.7796 60.2253 86.6632C60.3334 86.5467 60.4166 86.4178 60.4749 86.2763C60.5331 86.1349 60.5622 85.9893 60.5622 85.8396C60.5622 85.5484 60.4707 85.2531 60.2877 84.9536C60.113 84.6542 59.8551 84.388 59.514 84.155C58.8652 83.7557 58.2537 83.4105 57.6797 83.1193C57.1057 82.8282 56.5775 82.5536 56.095 82.2958C55.6125 82.0296 55.1757 81.7634 54.7847 81.4972C54.4021 81.2309 54.0735 80.9231 53.799 80.5738C53.5328 80.2244 53.3289 79.8167 53.1875 79.3509C53.0461 78.8767 52.9754 78.3069 52.9754 77.6414C52.9754 76.8427 53.1293 76.094 53.4371 75.3953C53.7449 74.6965 54.19 74.0892 54.7723 73.5734C55.3629 73.0493 56.0825 72.6376 56.931 72.3381C57.7795 72.0386 58.7445 71.8889 59.826 71.8889C60.9158 71.8889 61.8391 72.022 62.5962 72.2882C63.3532 72.5461 63.9646 72.883 64.4305 73.2989C64.9047 73.7149 65.2457 74.1807 65.4537 74.6965C65.67 75.2039 65.7781 75.7072 65.7781 76.2064ZM80.3902 79.5381C80.3902 80.4199 80.2488 81.2143 79.966 81.9214C79.6914 82.6202 79.3254 83.2192 78.8679 83.7183C78.4103 84.2091 77.8862 84.5876 77.2956 84.8538C76.705 85.12 76.0935 85.2531 75.4613 85.2531C75.1119 85.2531 74.7667 85.2157 74.4256 85.1408C74.0845 85.0576 73.7476 84.9245 73.4149 84.7415C73.4897 85.3571 73.6103 85.9893 73.7767 86.6382C73.9181 87.1956 74.1178 87.8195 74.3757 88.51C74.6419 89.1921 74.9913 89.8618 75.4239 90.519C74.5753 90.4275 73.81 90.3651 73.1278 90.3318C72.454 90.2902 71.8426 90.2694 71.2935 90.2694C70.5532 90.2694 69.9292 90.2944 69.4218 90.3443C68.9227 90.3942 68.515 90.4524 68.1989 90.519C67.8329 90.5938 67.5417 90.6729 67.3254 90.756C67.5334 90.1155 67.7123 89.4167 67.862 88.6597C68.0117 87.9027 68.1365 87.1124 68.2364 86.2888C68.3362 85.4653 68.4111 84.625 68.461 83.7682C68.5109 82.903 68.5358 82.0462 68.5358 81.1977C68.5358 80.2743 68.5067 79.3717 68.4485 78.4899C68.3903 77.5998 68.3029 76.7679 68.1864 75.9942C68.0783 75.2122 67.941 74.501 67.7747 73.8604C67.6083 73.2199 67.4169 72.6833 67.2007 72.2507C67.6 72.3755 68.0159 72.467 68.4485 72.5253C68.8894 72.5752 69.3344 72.6001 69.7837 72.6001C70.1913 72.6001 70.5989 72.5835 71.0065 72.5502C71.4225 72.5086 71.8301 72.467 72.2294 72.4254C72.6287 72.3838 73.0155 72.3464 73.3899 72.3131C73.7642 72.2715 74.1136 72.2507 74.4381 72.2507C74.7875 72.2507 75.1743 72.2965 75.5986 72.388C76.0311 72.4795 76.4679 72.6376 76.9088 72.8622C77.3497 73.0785 77.7781 73.3696 78.194 73.7356C78.61 74.1017 78.9802 74.5551 79.3046 75.0958C79.629 75.6365 79.8869 76.2729 80.0783 77.005C80.2779 77.737 80.3819 78.5814 80.3902 79.5381ZM73.2776 81.572C73.4856 81.3724 73.7226 81.1311 73.9889 80.8483C74.2634 80.5571 74.5213 80.2452 74.7625 79.9124C75.0038 79.5713 75.2034 79.2219 75.3615 78.8642C75.5278 78.5065 75.611 78.1654 75.611 77.841C75.611 77.4667 75.5029 77.1713 75.2866 76.9551C75.0786 76.7304 74.8457 76.6181 74.5878 76.6181C74.3549 76.6181 74.1594 76.6972 74.0013 76.8552C73.8516 77.0133 73.7268 77.2213 73.627 77.4791C73.5272 77.7287 73.4523 78.0115 73.4024 78.3277C73.3525 78.6355 73.315 78.9433 73.2901 79.2511C73.2651 79.5505 73.2526 79.8334 73.2526 80.0996C73.2526 80.3575 73.2526 80.5613 73.2526 80.711C73.2526 80.8524 73.2526 80.9939 73.2526 81.1353C73.2526 81.2767 73.261 81.4223 73.2776 81.572ZM88.4138 90.3692C88.2391 90.3526 88.0436 90.3359 87.8273 90.3193C87.636 90.3027 87.4072 90.2902 87.141 90.2819C86.8748 90.2736 86.567 90.2694 86.2176 90.2694C85.5438 90.2694 84.7618 90.2985 83.8717 90.3567C82.9815 90.415 82.0166 90.5273 80.9767 90.6937C81.1597 90.3193 81.3178 89.8451 81.4509 89.2711C81.584 88.6971 81.6921 88.0857 81.7753 87.4368C81.8668 86.7796 81.9375 86.1141 81.9874 85.4403C82.0374 84.7665 82.0748 84.1384 82.0997 83.5561C82.1247 82.9737 82.1372 82.4705 82.1372 82.0462C82.1455 81.6219 82.1497 81.3308 82.1497 81.1727C82.1497 81.1394 82.1455 81.0105 82.1372 80.7859C82.1372 80.5613 82.133 80.2701 82.1247 79.9124C82.1164 79.5547 82.1039 79.1471 82.0873 78.6895C82.0706 78.2237 82.0457 77.7412 82.0124 77.2421C81.9874 76.7429 81.95 76.2396 81.9001 75.7322C81.8585 75.2247 81.8044 74.7464 81.7379 74.2972C81.6796 73.848 81.6089 73.4445 81.5257 73.0868C81.4509 72.7207 81.3594 72.4337 81.2512 72.2258C82.0914 72.3755 82.8609 72.4753 83.5597 72.5253C84.2668 72.5752 84.9032 72.6001 85.4689 72.6001C85.8432 72.6001 86.1802 72.5918 86.4796 72.5752C86.7791 72.5585 87.0328 72.5419 87.2408 72.5253C87.4821 72.5003 87.6942 72.4753 87.8772 72.4504C87.7774 72.9162 87.69 73.4362 87.6152 74.0102C87.5403 74.5759 87.4737 75.1831 87.4155 75.832C87.3573 76.4726 87.3115 77.1464 87.2782 77.8535C87.2533 78.5606 87.2408 79.2885 87.2408 80.0372C87.2408 80.9024 87.2616 81.7842 87.3032 82.6826C87.3448 83.5727 87.4113 84.4587 87.5029 85.3405C87.6027 86.2223 87.7233 87.0874 87.8647 87.936C88.0145 88.7845 88.1975 89.5956 88.4138 90.3692ZM96.612 90.3692C96.454 90.3526 96.2668 90.3359 96.0505 90.3193C95.8675 90.3027 95.647 90.2902 95.3891 90.2819C95.1313 90.2736 94.8359 90.2694 94.5032 90.2694C93.8543 90.2694 93.0931 90.2985 92.2196 90.3567C91.3545 90.415 90.402 90.5273 89.3621 90.6937C89.5451 90.3193 89.7032 89.8451 89.8363 89.2711C89.9694 88.6971 90.0775 88.0857 90.1607 87.4368C90.2522 86.7796 90.3229 86.1141 90.3729 85.4403C90.4228 84.7665 90.4602 84.1384 90.4852 83.5561C90.5101 82.9737 90.5226 82.4705 90.5226 82.0462C90.5309 81.6219 90.5351 81.3308 90.5351 81.1727C90.5351 81.1394 90.5309 81.0105 90.5226 80.7859C90.5226 80.5613 90.5184 80.2701 90.5101 79.9124C90.5018 79.5547 90.4893 79.1471 90.4727 78.6895C90.456 78.2237 90.4311 77.7412 90.3978 77.2421C90.3729 76.7429 90.3354 76.2396 90.2855 75.7322C90.2439 75.2247 90.1898 74.7464 90.1233 74.2972C90.0651 73.848 89.9944 73.4445 89.9112 73.0868C89.8363 72.7207 89.7448 72.4337 89.6366 72.2258C90.4768 72.3755 91.2422 72.4753 91.9326 72.5253C92.6231 72.5752 93.2387 72.6001 93.7794 72.6001C94.1455 72.6001 94.4699 72.5918 94.7527 72.5752C95.0439 72.5585 95.2852 72.5419 95.4765 72.5253C95.7011 72.5003 95.9007 72.4753 96.0754 72.4504C96.4332 74.214 96.8408 75.8486 97.2983 77.3544C97.7559 78.8601 98.2716 80.2576 98.8456 81.5471V81.0355C98.8207 79.6795 98.7749 78.415 98.7084 77.2421C98.6751 76.7429 98.6377 76.2396 98.5961 75.7322C98.5545 75.2247 98.5004 74.7464 98.4338 74.2972C98.3756 73.848 98.3049 73.4445 98.2217 73.0868C98.1468 72.7207 98.0553 72.4337 97.9472 72.2258C98.7791 72.3755 99.5444 72.4753 100.243 72.5253C100.95 72.5752 101.574 72.6001 102.115 72.6001C102.481 72.6001 102.805 72.5918 103.088 72.5752C103.379 72.5585 103.621 72.5419 103.812 72.5253C104.037 72.5003 104.236 72.4753 104.411 72.4504C104.311 72.9162 104.224 73.4362 104.149 74.0102C104.074 74.5842 104.007 75.1956 103.949 75.8445C103.891 76.4934 103.845 77.1755 103.812 77.8909C103.787 78.6063 103.775 79.3426 103.775 80.0996C103.775 80.9564 103.795 81.8299 103.837 82.72C103.879 83.6018 103.945 84.4836 104.037 85.3654C104.136 86.2389 104.257 87.0999 104.398 87.9484C104.548 88.7886 104.723 89.5956 104.923 90.3692C104.773 90.3526 104.594 90.3359 104.386 90.3193C104.211 90.3027 103.999 90.2902 103.75 90.2819C103.5 90.2736 103.217 90.2694 102.901 90.2694C102.302 90.2694 101.612 90.2985 100.83 90.3567C100.048 90.415 99.2075 90.5273 98.3091 90.6937C98.3091 89.8368 98.2383 89.0008 98.0969 88.1855C97.9638 87.362 97.7725 86.555 97.5229 85.7647C97.2734 84.9661 96.9739 84.1841 96.6245 83.4188C96.2751 82.6535 95.8883 81.8965 95.464 81.1478C95.4723 81.9297 95.5014 82.72 95.5514 83.5186C95.6096 84.3172 95.6845 85.1075 95.776 85.8895C95.8758 86.6715 95.9923 87.441 96.1254 88.198C96.2668 88.9467 96.429 89.6704 96.612 90.3692ZM112.859 72.0136C112.543 72.8123 112.264 73.6691 112.023 74.5842C111.79 75.4909 111.594 76.4268 111.436 77.3918C111.278 78.3568 111.158 79.3384 111.074 80.3367C110.999 81.3349 110.962 82.3207 110.962 83.294C110.962 83.6101 110.966 83.9221 110.975 84.2299C110.991 84.5377 111.008 84.8455 111.024 85.1533C110.609 85.0618 110.201 84.9994 109.802 84.9661C109.411 84.9245 109.015 84.9037 108.616 84.9037C108.375 84.9037 108.129 84.912 107.88 84.9287C107.639 84.937 107.397 84.962 107.156 85.0036C107.173 84.6958 107.185 84.3796 107.194 84.0552C107.202 83.7224 107.206 83.398 107.206 83.0819C107.206 82.0254 107.16 80.9647 107.069 79.8999C106.986 78.8268 106.869 77.8161 106.719 76.8677C106.578 75.911 106.407 75.0417 106.208 74.2597C106.008 73.4694 105.796 72.8247 105.571 72.3256C105.863 72.3672 106.22 72.4005 106.645 72.4254C107.077 72.4421 107.539 72.4504 108.03 72.4504C108.462 72.4504 108.903 72.4421 109.352 72.4254C109.81 72.4088 110.251 72.3838 110.675 72.3506C111.108 72.3173 111.511 72.2715 111.885 72.2133C112.26 72.1551 112.584 72.0885 112.859 72.0136ZM106.32 88.4476C106.32 88.0899 106.387 87.7529 106.52 87.4368C106.661 87.1124 106.848 86.8295 107.081 86.5883C107.323 86.3471 107.601 86.1599 107.917 86.0268C108.242 85.8854 108.587 85.8146 108.953 85.8146C109.311 85.8146 109.648 85.8854 109.964 86.0268C110.288 86.1599 110.571 86.3471 110.812 86.5883C111.054 86.8295 111.241 87.1124 111.374 87.4368C111.515 87.7529 111.586 88.0899 111.586 88.4476C111.586 88.8136 111.515 89.1588 111.374 89.4833C111.241 89.7994 111.054 90.0781 110.812 90.3193C110.571 90.5522 110.288 90.7353 109.964 90.8684C109.648 91.0098 109.311 91.0805 108.953 91.0805C108.587 91.0805 108.242 91.0098 107.917 90.8684C107.601 90.7353 107.323 90.5522 107.081 90.3193C106.848 90.0781 106.661 89.7994 106.52 89.4833C106.387 89.1588 106.32 88.8136 106.32 88.4476Z" fill="#4B00CC"/>
</svg>
