<svg width="283" height="232" fill="none" xmlns="http://www.w3.org/2000/svg">
  <ellipse cx="31.144" cy="-19.123" rx="189.813" ry="189.273" transform="rotate(24.458 31.144 -19.123)" fill="url(#a)"/>
  <circle cx="31.308" cy="-19.049" r="154.729" transform="rotate(24.458 31.308 -19.05)" fill="#EA1889"/>
  <path d="M172.153 45.013a154.728 154.728 0 1 0-50.901 61.839L31.308-19.049l140.845 64.062Z" fill="#9F18D9"/>
  <path d="M172.153 45.013a154.727 154.727 0 0 0-42.512-183.527 154.736 154.736 0 0 0-188.277-6.437 154.728 154.728 0 0 0-54.947 180.196 154.731 154.731 0 0 0 159.834 99.712L31.308-19.049l140.845 64.062Z" fill="#57F2B9"/>
  <path d="M172.153 45.013a154.734 154.734 0 0 0-27.76-169.67A154.731 154.731 0 0 0-123.331-24.335a154.731 154.731 0 0 0 90.577 146.131L31.308-19.049l140.845 64.062Z" fill="#EA1889"/>
  <path d="M172.153 45.013A154.732 154.732 0 0 0 95.37-159.894a154.732 154.732 0 0 0-204.906 76.783A154.722 154.722 0 0 0-94.593 70.895L31.308-19.049l140.845 64.062Z" fill="#9F18D9"/>
  <path d="M172.153 45.013a154.736 154.736 0 0 0-4.28-136.803A154.734 154.734 0 0 0-74.3-132.133 154.737 154.737 0 0 0-122.698-4.106L31.308-19.049l140.845 64.062Z" fill="#57F2B9"/>
  <path d="M172.153 45.013A154.729 154.729 0 1 0-109.536-83.111L31.308-19.049l140.845 64.062Z" fill="#EA1889"/>
  <path d="M172.153 45.013a154.727 154.727 0 0 0-42.512-183.527 154.736 154.736 0 0 0-188.277-6.437L31.308-19.049l140.845 64.062Z" fill="#9F18D9"/>
  <path d="M172.153 45.013A154.732 154.732 0 0 0 95.37-159.894a154.732 154.732 0 0 0-79.005-13.161L31.308-19.049l140.845 64.062Z" fill="#57F2B9"/>
  <path d="M172.153 45.013a154.72 154.72 0 0 0 4.046-118.356 154.734 154.734 0 0 0-80.829-86.551L31.308-19.049l140.845 64.062Z" fill="#EA1889"/>
  <path d="M172.153 45.013a154.732 154.732 0 0 0-14.943-154.006L31.308-19.049l140.845 64.062Z" fill="#9F18D9"/>
  <path d="M172.153 45.013a154.732 154.732 0 0 0 13.161-79.005L31.308-19.05l140.845 64.062Z" fill="#57F2B9"/>
  <circle cx="31.219" cy="-19.287" r="25.009" transform="rotate(24.458 31.22 -19.287)" fill="#D396ED"/>
  <circle cx="31.219" cy="-19.287" r="14.933" transform="rotate(24.458 31.219 -19.287)" fill="#57F2B9"/>
  <defs>
    <radialGradient id="a" cx="0" cy="0" r="1" gradientUnits="userSpaceOnUse" gradientTransform="matrix(443.95465 487.23995 -488.62886 445.22017 -83.147 -344.173)">
      <stop offset=".169" stop-color="#4B00CC"/>
      <stop offset="1" stop-color="#4B00CC" stop-opacity="0"/>
    </radialGradient>
  </defs>
</svg>
