<svg viewBox="0 0 353 353" fill="none" xmlns="http://www.w3.org/2000/svg">
<circle cx="176.811" cy="176.352" r="137.952" transform="rotate(19.3911 176.811 176.352)" fill="#9F18D9"/>
<path d="M306.938 222.154C318.05 190.584 317.306 156.051 304.845 124.989C292.384 93.9271 269.056 68.4544 239.206 53.3168C209.357 38.1792 175.022 34.4092 142.6 42.7092C110.177 51.0092 81.8771 70.813 62.9729 98.4311C44.0687 126.049 35.8494 159.598 39.8463 192.827C43.8433 226.055 59.7839 256.698 84.6982 279.045C109.612 301.393 141.801 313.921 175.268 314.295C208.734 314.67 241.195 302.865 266.603 281.081L176.811 176.352L306.938 222.154Z" fill="#EA1889"/>
<path d="M306.938 222.154C317.02 193.508 317.369 162.337 307.93 133.473C298.491 104.609 279.791 79.6666 254.732 62.5136C229.672 45.3606 199.653 36.9558 169.329 38.6028C139.006 40.2497 110.074 51.8564 87.0192 71.6227C63.9647 91.389 48.0767 118.21 41.8194 147.926C35.562 177.643 39.2849 208.593 52.4107 235.978C65.5365 263.363 87.3317 285.651 114.416 299.387C141.5 313.122 172.36 317.537 202.209 311.946L176.811 176.352L306.938 222.154Z" fill="#9F18D9"/>
<path d="M306.938 222.154C315.996 196.417 317.22 168.572 310.454 142.14C303.687 115.708 289.235 91.8764 268.924 73.6581C248.613 55.4399 223.356 43.6537 196.347 39.79C169.337 35.9262 141.789 40.1584 117.185 51.9514C92.5806 63.7444 72.0261 82.5685 58.1204 106.043C44.2147 129.518 37.5823 156.589 39.0621 183.833C40.5418 211.078 50.0672 237.271 66.4336 259.102C82.8 280.932 105.272 297.42 131.009 306.478L176.811 176.352L306.938 222.154Z" fill="#EA1889"/>
<path d="M306.938 222.154C314.978 199.312 316.863 174.756 312.405 150.954C307.947 127.152 297.302 104.944 281.54 86.5598C265.778 68.1761 245.455 54.2651 222.613 46.2252C199.771 38.1852 175.215 36.2996 151.414 40.7578C127.612 45.216 105.403 55.8609 87.0192 71.6227C68.6354 87.3845 54.7244 107.708 46.6845 130.55C38.6445 153.392 36.7589 177.948 41.2171 201.749C45.6753 225.551 56.3203 247.76 72.082 266.144L176.811 176.352L306.938 222.154Z" fill="#9F18D9"/>
<path d="M306.938 222.154C313.963 202.194 316.303 180.886 313.776 159.877C311.249 138.868 303.923 118.722 292.364 100.998C280.806 83.2735 265.325 68.4455 247.119 57.661C228.914 46.8766 208.471 40.4248 187.373 38.8047C166.275 37.1846 145.087 40.4396 125.448 48.318C105.81 56.1964 88.2464 68.4869 74.1175 84.2389C59.9885 99.9908 49.6725 118.782 43.9675 139.158C38.2625 159.535 37.3214 180.951 41.2171 201.749L176.811 176.352L306.938 222.154Z" fill="#EA1889"/>
<path d="M306.938 222.154C319.085 187.642 317.025 149.718 301.211 116.725C285.397 83.7323 257.125 58.3726 222.613 46.2252C188.101 34.0777 150.178 36.1375 117.185 51.9514C84.1916 67.7653 58.832 96.038 46.6845 130.55L176.811 176.352L306.938 222.154Z" fill="#9F18D9"/>
<path d="M306.938 222.154C317.02 193.508 317.369 162.337 307.93 133.473C298.491 104.609 279.791 79.6666 254.732 62.5136C229.672 45.3606 199.653 36.9558 169.329 38.6028C139.006 40.2497 110.074 51.8564 87.0192 71.6227L176.811 176.352L306.938 222.154Z" fill="#EA1889"/>
<path d="M306.938 222.154C314.978 199.312 316.863 174.756 312.405 150.954C307.947 127.152 297.302 104.944 281.54 86.5598C265.778 68.1761 245.455 54.2651 222.613 46.2252C199.771 38.1852 175.215 36.2996 151.414 40.7578L176.811 176.352L306.938 222.154Z" fill="#9F18D9"/>
<path d="M306.938 222.154C312.952 205.065 315.543 186.96 314.56 168.87C313.578 150.781 309.042 133.062 301.211 116.725C293.381 100.389 282.41 85.7546 268.924 73.6581C255.438 61.5617 239.702 52.24 222.613 46.2252L176.811 176.352L306.938 222.154Z" fill="#EA1889"/>
<path d="M306.938 222.154C314.978 199.312 316.863 174.756 312.405 150.954C307.947 127.152 297.302 104.944 281.54 86.5598L176.811 176.352L306.938 222.154Z" fill="#9F18D9"/>
<path d="M306.938 222.154C314.978 199.312 316.863 174.756 312.405 150.954L176.811 176.352L306.938 222.154Z" fill="#EA1889"/>
<path d="M92.6801 217.606L88.0294 214.942H87.9729L87.9352 214.923H84.8284C84.7285 214.923 84.6327 214.963 84.5621 215.034C84.4915 215.104 84.4518 215.2 84.4518 215.3C84.4518 215.999 84.1741 216.67 83.6797 217.164C83.1854 217.658 82.5149 217.936 81.8157 217.936C81.1166 217.936 80.4461 217.658 79.9517 217.164C79.4574 216.67 79.1797 215.999 79.1797 215.3C79.1797 215.2 79.14 215.104 79.0694 215.034C78.9987 214.963 78.9029 214.923 78.8031 214.923H75.6963L75.6586 214.942H75.6021L70.9513 217.606C70.7016 217.751 70.5161 217.985 70.4322 218.261C70.3483 218.537 70.3723 218.835 70.4994 219.094L72.2317 222.559C72.3257 222.745 72.4697 222.902 72.6475 223.012C72.8253 223.121 73.0301 223.18 73.2391 223.18H75.4138V231.088C75.4138 231.388 75.5329 231.675 75.7447 231.887C75.9566 232.099 76.2439 232.218 76.5436 232.218H87.0879C87.3875 232.218 87.6749 232.099 87.8867 231.887C88.0986 231.675 88.2176 231.388 88.2176 231.088V223.18H90.3924C90.6014 223.18 90.8061 223.121 90.984 223.012C91.1618 222.902 91.3057 222.745 91.3998 222.559L93.132 219.094C93.2591 218.835 93.2832 218.537 93.1993 218.261C93.1154 217.985 92.9299 217.751 92.6801 217.606V217.606ZM73.2391 222.427C73.1698 222.429 73.1014 222.41 73.0427 222.374C72.984 222.337 72.9376 222.283 72.9095 222.22L71.1773 218.755C71.1332 218.669 71.1242 218.568 71.1523 218.475C71.1804 218.382 71.2433 218.304 71.3279 218.256L75.4138 215.921V222.427H73.2391ZM87.4645 231.088C87.4645 231.188 87.4248 231.284 87.3542 231.354C87.2836 231.425 87.1878 231.465 87.0879 231.465H76.5436C76.4437 231.465 76.3479 231.425 76.2773 231.354C76.2067 231.284 76.167 231.188 76.167 231.088V215.648H78.4453C78.5334 216.481 78.9265 217.251 79.5488 217.811C80.1711 218.371 80.9786 218.681 81.8157 218.681C82.6528 218.681 83.4603 218.371 84.0827 217.811C84.705 217.251 85.098 216.481 85.1862 215.648H87.4645V231.088ZM92.4542 218.755L90.7219 222.22C90.6938 222.283 90.6475 222.337 90.5888 222.374C90.5301 222.41 90.4617 222.429 90.3924 222.427H88.2176V215.921L92.3036 218.256C92.3882 218.304 92.4511 218.382 92.4792 218.475C92.5072 218.568 92.4983 218.669 92.4542 218.755Z" fill="#F2F3F3"/>
<path d="M139.956 73.9258L135.305 71.2615H135.249L135.211 71.2427H132.104C132.004 71.2427 131.908 71.2824 131.838 71.353C131.767 71.4236 131.727 71.5194 131.727 71.6193C131.727 72.3184 131.45 72.9889 130.955 73.4832C130.461 73.9776 129.791 74.2553 129.091 74.2553C128.392 74.2553 127.722 73.9776 127.227 73.4832C126.733 72.9889 126.455 72.3184 126.455 71.6193C126.455 71.5194 126.416 71.4236 126.345 71.353C126.274 71.2824 126.179 71.2427 126.079 71.2427H122.972L122.934 71.2615H122.878L118.227 73.9258C117.977 74.0704 117.792 74.3044 117.708 74.5805C117.624 74.8566 117.648 75.1543 117.775 75.4133L119.507 78.8779C119.601 79.0645 119.745 79.2214 119.923 79.331C120.101 79.4407 120.306 79.499 120.515 79.4993H122.689V87.4075C122.689 87.7071 122.809 87.9945 123.02 88.2063C123.232 88.4182 123.52 88.5372 123.819 88.5372H134.364C134.663 88.5372 134.951 88.4182 135.162 88.2063C135.374 87.9945 135.493 87.7071 135.493 87.4075V79.4993H137.668C137.877 79.499 138.082 79.4407 138.26 79.331C138.437 79.2214 138.581 79.0645 138.675 78.8779L140.408 75.4133C140.535 75.1543 140.559 74.8566 140.475 74.5805C140.391 74.3044 140.206 74.0704 139.956 73.9258V73.9258ZM120.515 78.7461C120.445 78.7483 120.377 78.7297 120.318 78.6928C120.26 78.6559 120.213 78.6024 120.185 78.539L118.453 75.0744C118.409 74.9879 118.4 74.8876 118.428 74.7947C118.456 74.7017 118.519 74.6231 118.604 74.5754L122.689 72.2406V78.7461H120.515ZM134.74 87.4075C134.74 87.5074 134.7 87.6032 134.63 87.6738C134.559 87.7444 134.463 87.7841 134.364 87.7841H123.819C123.719 87.7841 123.624 87.7444 123.553 87.6738C123.482 87.6032 123.443 87.5074 123.443 87.4075V71.9676H125.721C125.809 72.8001 126.202 73.5705 126.824 74.1304C127.447 74.6903 128.254 75.0001 129.091 75.0001C129.928 75.0001 130.736 74.6903 131.358 74.1304C131.981 73.5705 132.374 72.8001 132.462 71.9676H134.74V87.4075ZM139.73 75.0744L137.998 78.539C137.969 78.6024 137.923 78.6559 137.864 78.6928C137.806 78.7297 137.737 78.7483 137.668 78.7461H135.493V72.2406L139.579 74.5754C139.664 74.6231 139.727 74.7017 139.755 74.7947C139.783 74.8876 139.774 74.9879 139.73 75.0744Z" fill="#F2F3F3"/>
<path d="M247.347 76.5297L247.54 76.3363C247.686 76.1907 247.859 76.0753 248.049 75.9966C248.239 75.9179 248.443 75.8774 248.649 75.8774C248.855 75.8775 249.058 75.9181 249.249 75.9969C249.439 76.0758 249.612 76.1913 249.757 76.3369C249.903 76.4825 250.018 76.6554 250.097 76.8456C250.175 77.0358 250.216 77.2396 250.216 77.4455C250.216 77.6514 250.175 77.8552 250.096 78.0454C250.017 78.2355 249.902 78.4083 249.756 78.5538L249.563 78.746C249.894 79.1171 250.07 79.6008 250.056 80.0979C250.042 80.5949 249.838 81.0677 249.486 81.4193L236.124 94.7832C236.041 94.8663 235.936 94.9251 235.822 94.9533L230.628 96.2516C230.52 96.2787 230.406 96.2772 230.298 96.2472C230.19 96.2173 230.092 96.1599 230.013 96.0807C229.933 96.0015 229.876 95.9032 229.846 95.7953C229.816 95.6873 229.815 95.5735 229.842 95.4648L231.14 90.2714C231.168 90.1575 231.227 90.0534 231.31 89.9702L243.828 77.4515C243.703 77.3634 243.551 77.3224 243.398 77.3357C243.246 77.349 243.103 77.4158 242.995 77.5242L238.721 81.7997C238.66 81.8601 238.589 81.9079 238.51 81.9406C238.431 81.9733 238.347 81.9901 238.261 81.9901C238.176 81.9901 238.091 81.9733 238.012 81.9406C237.934 81.9079 237.862 81.8601 237.802 81.7997C237.741 81.7393 237.693 81.6677 237.661 81.5888C237.628 81.51 237.611 81.4255 237.611 81.3401C237.611 81.2547 237.628 81.1702 237.661 81.0913C237.693 81.0125 237.741 80.9408 237.802 80.8805L242.078 76.6063C242.43 76.2545 242.903 76.0506 243.4 76.0366C243.898 76.0226 244.382 76.1995 244.753 76.531C245.109 76.2122 245.571 76.0358 246.049 76.0356C246.528 76.0354 246.99 76.2112 247.347 76.5297V76.5297ZM246.511 77.5242C246.389 77.4025 246.224 77.3342 246.052 77.3342C245.88 77.3342 245.714 77.4025 245.593 77.5242L232.354 90.7609L231.362 94.73L235.331 93.738L248.57 80.5014C248.63 80.4411 248.678 80.3694 248.711 80.2906C248.744 80.2117 248.76 80.1271 248.76 80.0417C248.76 79.9564 248.744 79.8718 248.711 79.7929C248.678 79.7141 248.63 79.6424 248.57 79.5821L246.512 77.5242H246.511Z" fill="#F2F3F3"/>
<path d="M123.132 252.655L123.326 252.461C123.471 252.316 123.644 252.2 123.834 252.122C124.025 252.043 124.228 252.002 124.434 252.002C124.64 252.003 124.844 252.043 125.034 252.122C125.224 252.201 125.397 252.316 125.543 252.462C125.688 252.608 125.804 252.78 125.882 252.971C125.961 253.161 126.001 253.365 126.001 253.571C126.001 253.776 125.961 253.98 125.882 254.17C125.803 254.361 125.688 254.533 125.542 254.679L125.349 254.871C125.679 255.242 125.856 255.726 125.842 256.223C125.827 256.72 125.624 257.193 125.272 257.544L111.91 270.908C111.826 270.991 111.722 271.05 111.607 271.078L106.414 272.377C106.305 272.404 106.191 272.402 106.084 272.372C105.976 272.342 105.877 272.285 105.798 272.206C105.719 272.127 105.662 272.028 105.632 271.92C105.602 271.812 105.6 271.699 105.627 271.59L106.926 266.396C106.954 266.282 107.013 266.178 107.096 266.095L119.614 253.577C119.489 253.488 119.336 253.447 119.184 253.461C119.031 253.474 118.888 253.541 118.78 253.649L114.506 257.925C114.446 257.985 114.374 258.033 114.295 258.066C114.217 258.098 114.132 258.115 114.047 258.115C113.961 258.115 113.877 258.098 113.798 258.066C113.719 258.033 113.647 257.985 113.587 257.925C113.527 257.864 113.479 257.793 113.446 257.714C113.414 257.635 113.397 257.55 113.397 257.465C113.397 257.38 113.414 257.295 113.446 257.216C113.479 257.137 113.527 257.066 113.587 257.005L117.864 252.731C118.216 252.379 118.689 252.176 119.186 252.162C119.683 252.148 120.167 252.325 120.538 252.656C120.895 252.337 121.357 252.161 121.835 252.161C122.313 252.16 122.775 252.336 123.132 252.655V252.655ZM122.296 253.649C122.174 253.528 122.009 253.459 121.837 253.459C121.665 253.459 121.5 253.528 121.378 253.649L108.139 266.886L107.148 270.855L111.116 269.863L124.355 256.626C124.416 256.566 124.464 256.494 124.496 256.416C124.529 256.337 124.546 256.252 124.546 256.167C124.546 256.081 124.529 255.997 124.496 255.918C124.464 255.839 124.416 255.767 124.355 255.707L122.297 253.649H122.296Z" fill="#F2F3F3"/>
<path d="M87.9073 105.266L88.1007 105.072C88.2464 104.927 88.4192 104.811 88.6094 104.732C88.7996 104.654 89.0035 104.613 89.2093 104.613C89.4152 104.613 89.619 104.654 89.8092 104.733C89.9993 104.812 90.1721 104.927 90.3176 105.073C90.4631 105.218 90.5785 105.391 90.6573 105.581C90.736 105.772 90.7765 105.975 90.7764 106.181C90.7763 106.387 90.7357 106.591 90.6569 106.781C90.5781 106.971 90.4626 107.144 90.317 107.29L90.1235 107.482C90.4544 107.853 90.6309 108.337 90.6166 108.834C90.6024 109.331 90.3985 109.804 90.0469 110.155L76.6847 123.519C76.6012 123.602 76.4966 123.661 76.3822 123.689L71.189 124.987C71.0803 125.015 70.9665 125.013 70.8586 124.983C70.7507 124.953 70.6523 124.896 70.5731 124.817C70.4939 124.737 70.4366 124.639 70.4066 124.531C70.3767 124.423 70.3752 124.309 70.4022 124.201L71.7005 119.007C71.7289 118.893 71.7877 118.789 71.8706 118.706L84.3889 106.187C84.2637 106.099 84.1114 106.058 83.9589 106.072C83.8063 106.085 83.6634 106.152 83.5554 106.26L79.2814 110.536C79.221 110.596 79.1493 110.644 79.0705 110.676C78.9916 110.709 78.9071 110.726 78.8218 110.726C78.7364 110.726 78.6519 110.709 78.573 110.676C78.4942 110.644 78.4225 110.596 78.3621 110.536C78.3018 110.475 78.2539 110.404 78.2213 110.325C78.1886 110.246 78.1718 110.161 78.1718 110.076C78.1718 109.991 78.1886 109.906 78.2213 109.827C78.2539 109.748 78.3018 109.677 78.3621 109.616L82.6388 105.342C82.9906 104.99 83.4637 104.786 83.961 104.772C84.4584 104.758 84.9422 104.935 85.3133 105.267C85.67 104.948 86.1316 104.772 86.61 104.771C87.0885 104.771 87.5503 104.947 87.9073 105.266V105.266ZM87.0712 106.26C86.9495 106.138 86.7844 106.07 86.6122 106.07C86.4401 106.07 86.275 106.138 86.1533 106.26L72.9145 119.497L71.9225 123.466L75.8915 122.474L89.1303 109.237C89.1908 109.177 89.2387 109.105 89.2714 109.026C89.3042 108.948 89.321 108.863 89.321 108.778C89.321 108.692 89.3042 108.608 89.2714 108.529C89.2387 108.45 89.1908 108.378 89.1303 108.318L87.0725 106.26H87.0712Z" fill="#F2F3F3"/>
<g clip-path="url(#clip0_1564_49)">
<path d="M288.338 178.902H283.819V186.434H288.338C288.587 186.433 288.827 186.334 289.003 186.158C289.18 185.981 289.279 185.742 289.279 185.492V179.843C289.279 179.594 289.18 179.355 289.003 179.178C288.827 179.002 288.587 178.902 288.338 178.902V178.902ZM287.773 184.927H285.325V180.408H287.773V184.927Z" fill="#F2F3F3"/>
<path d="M289.306 176.077H285.325V173.441H270.262V189.634C270.263 190.433 270.58 191.199 271.145 191.764C271.71 192.329 272.476 192.646 273.274 192.647H282.312C283.111 192.646 283.877 192.329 284.442 191.764C285.006 191.199 285.324 190.433 285.325 189.634V189.258H289.306C290.048 189.257 290.759 188.962 291.283 188.438C291.808 187.913 292.103 187.202 292.103 186.461V178.875C292.103 178.133 291.808 177.422 291.283 176.898C290.759 176.373 290.048 176.078 289.306 176.077V176.077ZM290.597 186.461C290.597 186.803 290.461 187.131 290.219 187.373C289.977 187.615 289.648 187.751 289.306 187.752H283.819V189.634C283.818 190.034 283.659 190.417 283.377 190.699C283.095 190.982 282.712 191.14 282.312 191.141H273.274C272.875 191.14 272.492 190.982 272.21 190.699C271.927 190.417 271.768 190.034 271.768 189.634V174.948H283.819V177.584H289.306C289.648 177.584 289.977 177.72 290.219 177.962C290.461 178.204 290.597 178.533 290.597 178.875V186.461Z" fill="#F2F3F3"/>
</g>
<path d="M76.9877 166.851H72.4687V174.383H76.9877C77.2373 174.383 77.4766 174.284 77.6531 174.107C77.8296 173.931 77.9289 173.691 77.9292 173.442V167.793C77.9289 167.543 77.8296 167.304 77.6531 167.128C77.4766 166.951 77.2373 166.852 76.9877 166.851V166.851ZM76.4228 172.877H73.9751V168.358H76.4228V172.877Z" fill="#F2F3F3"/>
<path d="M77.9562 164.027H73.9751V161.391H58.9117V177.584C58.9126 178.383 59.2303 179.148 59.7951 179.713C60.3599 180.278 61.1257 180.596 61.9244 180.597H70.9624C71.7611 180.596 72.5269 180.278 73.0917 179.713C73.6565 179.148 73.9742 178.383 73.9751 177.584V177.207H77.9562C78.6978 177.207 79.4089 176.912 79.9333 176.387C80.4577 175.863 80.7527 175.152 80.7536 174.41V166.824C80.7527 166.083 80.4577 165.372 79.9333 164.847C79.4089 164.323 78.6978 164.028 77.9562 164.027V164.027ZM79.2472 174.41C79.2468 174.752 79.1107 175.08 78.8687 175.322C78.6266 175.564 78.2985 175.701 77.9562 175.701H72.4687V177.584C72.4683 177.983 72.3094 178.366 72.027 178.649C71.7446 178.931 71.3618 179.09 70.9624 179.09H61.9244C61.525 179.09 61.1422 178.931 60.8598 178.649C60.5774 178.366 60.4185 177.983 60.4181 177.584V162.897H72.4687V165.533H77.9562C78.2985 165.534 78.6266 165.67 78.8687 165.912C79.1107 166.154 79.2468 166.482 79.2472 166.824V174.41Z" fill="#F2F3F3"/>
<path d="M229.011 272.526H224.492V280.058H229.011C229.261 280.058 229.5 279.958 229.677 279.782C229.853 279.605 229.952 279.366 229.953 279.117V273.468C229.952 273.218 229.853 272.979 229.677 272.802C229.5 272.626 229.261 272.527 229.011 272.526V272.526ZM228.446 278.552H225.999V274.033H228.446V278.552Z" fill="#F2F3F3"/>
<path d="M229.98 269.702H225.999V267.066H210.935V283.259C210.936 284.058 211.254 284.823 211.819 285.388C212.384 285.953 213.149 286.271 213.948 286.272H222.986C223.785 286.271 224.55 285.953 225.115 285.388C225.68 284.823 225.998 284.058 225.999 283.259V282.882H229.98C230.721 282.881 231.432 282.586 231.957 282.062C232.481 281.538 232.776 280.827 232.777 280.085V272.499C232.776 271.758 232.481 271.047 231.957 270.522C231.432 269.998 230.721 269.703 229.98 269.702V269.702ZM231.271 280.085C231.27 280.427 231.134 280.755 230.892 280.997C230.65 281.239 230.322 281.376 229.98 281.376H224.492V283.259C224.492 283.658 224.333 284.041 224.051 284.324C223.768 284.606 223.385 284.765 222.986 284.765H213.948C213.549 284.765 213.166 284.606 212.883 284.324C212.601 284.041 212.442 283.658 212.442 283.259V268.572H224.492V271.208H229.98C230.322 271.209 230.65 271.345 230.892 271.587C231.134 271.829 231.27 272.157 231.271 272.499V280.085Z" fill="#F2F3F3"/>
<path d="M185.328 65.6809V69.8523M191.353 67.5349V74.4872V67.5349ZM179.302 74.4872V77.7316H191.353V74.4872H179.302ZM179.302 74.4872H176.058V67.5349C176.058 66.1444 176.985 64.5222 178.375 63.3635C179.766 62.2048 181.62 61.973 181.62 61.973L185.328 65.6809L179.302 74.4872ZM179.302 74.4872V67.5349V74.4872ZM191.353 74.4872H194.597V67.5349C194.597 66.1444 193.67 64.5222 192.28 63.3635C190.89 62.2048 189.036 61.973 189.036 61.973L185.328 65.6809L191.353 74.4872Z" stroke="#F2F3F3" stroke-width="0.926973" stroke-linecap="round" stroke-linejoin="round"/>
<path d="M178.375 63.3634C179.766 62.2047 181.62 61.9729 181.62 61.9729L185.328 65.6808L189.036 61.9729C189.036 61.9729 190.889 62.2047 192.28 63.3634L193.207 61.2777L192.28 59.192H178.375L177.448 61.2777L178.375 63.3634Z" stroke="#F2F3F3" stroke-width="0.926973" stroke-linecap="round" stroke-linejoin="round"/>
<path d="M168.642 278.885V283.056M174.667 280.739V287.691V280.739ZM162.617 287.691V290.936H174.667V287.691H162.617ZM162.617 287.691H159.372V280.739C159.372 279.348 160.299 277.726 161.69 276.567C163.08 275.409 164.934 275.177 164.934 275.177L168.642 278.885L162.617 287.691ZM162.617 287.691V280.739V287.691ZM174.667 287.691H177.912V280.739C177.912 279.348 176.985 277.726 175.594 276.567C174.204 275.409 172.35 275.177 172.35 275.177L168.642 278.885L174.667 287.691Z" stroke="#F2F3F3" stroke-width="0.926973" stroke-linecap="round" stroke-linejoin="round"/>
<path d="M161.69 276.567C163.08 275.409 164.934 275.177 164.934 275.177L168.642 278.885L172.35 275.177C172.35 275.177 174.204 275.409 175.594 276.567L176.521 274.482L175.594 272.396H161.69L160.763 274.482L161.69 276.567Z" stroke="#F2F3F3" stroke-width="0.926973" stroke-linecap="round" stroke-linejoin="round"/>
<path d="M274.317 128.715V132.887M280.342 130.569V137.522V130.569ZM268.292 137.522V140.766H280.342V137.522H268.292ZM268.292 137.522H265.047V130.569C265.047 129.179 265.974 127.557 267.365 126.398C268.755 125.239 270.609 125.007 270.609 125.007L274.317 128.715L268.292 137.522ZM268.292 137.522V130.569V137.522ZM280.342 137.522H283.587V130.569C283.587 129.179 282.66 127.557 281.269 126.398C279.879 125.239 278.025 125.007 278.025 125.007L274.317 128.715L280.342 137.522Z" stroke="#F2F3F3" stroke-width="0.926973" stroke-linecap="round" stroke-linejoin="round"/>
<path d="M267.365 126.398C268.755 125.239 270.609 125.007 270.609 125.007L274.317 128.715L278.025 125.007C278.025 125.007 279.879 125.239 281.269 126.398L282.196 124.312L281.269 122.226H267.365L266.438 124.312L267.365 126.398Z" stroke="#F2F3F3" stroke-width="0.926973" stroke-linecap="round" stroke-linejoin="round"/>
<path d="M260 246.5L265 232.5L274 241.5L260 246.5ZM263.3 243.2L270.35 240.7L265.8 236.15L263.3 243.2ZM272.55 237.05L271.5 236L277.1 230.4C277.633 229.867 278.275 229.6 279.025 229.6C279.775 229.6 280.417 229.867 280.95 230.4L281.55 231L280.5 232.05L279.9 231.45C279.667 231.217 279.375 231.1 279.025 231.1C278.675 231.1 278.383 231.217 278.15 231.45L272.55 237.05ZM268.55 233.05L267.5 232L268.1 231.4C268.333 231.167 268.45 230.883 268.45 230.55C268.45 230.217 268.333 229.933 268.1 229.7L267.45 229.05L268.5 228L269.15 228.65C269.683 229.183 269.95 229.817 269.95 230.55C269.95 231.283 269.683 231.917 269.15 232.45L268.55 233.05ZM270.55 235.05L269.5 234L273.1 230.4C273.333 230.167 273.45 229.875 273.45 229.525C273.45 229.175 273.333 228.883 273.1 228.65L271.5 227.05L272.55 226L274.15 227.6C274.683 228.133 274.95 228.775 274.95 229.525C274.95 230.275 274.683 230.917 274.15 231.45L270.55 235.05ZM274.55 239.05L273.5 238L275.1 236.4C275.633 235.867 276.275 235.6 277.025 235.6C277.775 235.6 278.417 235.867 278.95 236.4L280.55 238L279.5 239.05L277.9 237.45C277.667 237.217 277.375 237.1 277.025 237.1C276.675 237.1 276.383 237.217 276.15 237.45L274.55 239.05Z" fill="#F2F3F3"/>
<defs>
<clipPath id="clip0_1564_49">
<rect width="24.1013" height="24.1013" fill="white" transform="translate(268.755 170.429)"/>
</clipPath>
</defs>
</svg>
