<svg width="157" height="391" viewBox="0 0 157 391" fill="none" xmlns="http://www.w3.org/2000/svg">
<ellipse cx="-85.1125" cy="241.558" rx="189.813" ry="189.273" transform="rotate(19.3911 -85.1125 241.558)" fill="url(#paint0_radial_689_92)"/>
<circle cx="-84.9427" cy="241.617" r="154.729" transform="rotate(19.3911 -84.9427 241.617)" fill="#EA1889"/>
<path d="M61.0094 292.99C73.4728 257.58 72.6385 218.848 58.6621 184.008C44.6856 149.168 18.5202 120.598 -14.9592 103.619C-48.4387 86.6406 -86.9488 82.4121 -123.315 91.7215C-159.681 101.031 -191.422 123.243 -212.625 154.22C-233.829 185.197 -243.048 222.826 -238.565 260.096C-234.082 297.366 -216.202 331.735 -188.258 356.8C-160.314 381.865 -124.21 395.917 -86.674 396.337C-49.1377 396.757 -12.7288 383.517 15.7694 359.083L-84.9427 241.617L61.0094 292.99Z" fill="#9F18D9"/>
<path d="M61.0094 292.99C72.3183 260.86 72.7095 225.898 62.1224 193.524C51.5354 161.15 30.5617 133.174 2.45438 113.934C-25.653 94.6953 -59.3232 85.2684 -93.3343 87.1157C-127.345 88.9629 -159.797 101.981 -185.655 124.151C-211.513 146.322 -229.333 176.405 -236.352 209.735C-243.37 243.065 -239.194 277.78 -224.472 308.495C-209.75 339.21 -185.304 364.209 -154.926 379.615C-124.548 395.021 -89.9354 399.972 -56.4564 393.702L-84.9427 241.617L61.0094 292.99Z" fill="#57F2B9"/>
<path d="M61.0094 292.99C71.1699 264.123 72.5423 232.892 64.953 203.245C57.3637 173.599 41.1537 146.868 18.3726 126.434C-4.40838 106.001 -32.7371 92.7809 -63.0313 88.4473C-93.3254 84.1136 -124.224 88.8605 -151.821 102.088C-179.417 115.315 -202.471 136.428 -218.068 162.758C-233.665 189.088 -241.104 219.451 -239.444 250.009C-237.785 280.566 -227.101 309.945 -208.744 334.431C-190.387 358.917 -165.182 377.409 -136.315 387.569L-84.9427 241.617L61.0094 292.99Z" fill="#EA1889"/>
<path d="M61.0094 292.99C70.0272 267.37 72.1421 239.827 67.1417 213.131C62.1413 186.435 50.2018 161.525 32.5231 140.905C14.8445 120.286 -7.9504 104.683 -33.5703 95.6651C-59.1903 86.6473 -86.7326 84.5324 -113.429 89.5328C-140.125 94.5332 -165.035 106.473 -185.655 124.151C-206.274 141.83 -221.877 164.625 -230.895 190.245C-239.913 215.865 -242.027 243.407 -237.027 270.104C-232.027 296.8 -220.087 321.71 -202.408 342.329L-84.9427 241.617L61.0094 292.99Z" fill="#9F18D9"/>
<path d="M61.0094 292.99C68.8893 270.602 71.5136 246.702 68.6792 223.139C65.8448 199.575 57.6278 176.979 44.6638 157.099C31.6997 137.219 14.3362 120.588 -6.0836 108.492C-26.5034 96.3957 -49.4321 89.1593 -73.096 87.3421C-96.7599 85.525 -120.525 89.1759 -142.552 98.0124C-164.579 106.849 -184.278 120.634 -200.126 138.302C-215.973 155.969 -227.543 177.046 -233.942 199.901C-240.341 222.755 -241.397 246.776 -237.027 270.104L-84.9427 241.617L61.0094 292.99Z" fill="#57F2B9"/>
<path d="M61.0094 292.99C74.6342 254.281 72.3239 211.745 54.5868 174.739C36.8496 137.734 5.13858 109.29 -33.5703 95.6651C-72.2792 82.0403 -114.815 84.3506 -151.821 102.088C-188.826 119.825 -217.27 151.536 -230.895 190.245L-84.9427 241.617L61.0094 292.99Z" fill="#EA1889"/>
<path d="M61.0094 292.99C72.3183 260.86 72.7095 225.898 62.1224 193.524C51.5354 161.15 30.5617 133.174 2.45438 113.934C-25.653 94.6953 -59.3232 85.2684 -93.3343 87.1157C-127.345 88.9629 -159.797 101.981 -185.655 124.151L-84.9427 241.617L61.0094 292.99Z" fill="#9F18D9"/>
<path d="M61.0094 292.99C70.0272 267.37 72.1421 239.827 67.1417 213.131C62.1413 186.435 50.2018 161.525 32.5231 140.905C14.8445 120.286 -7.9504 104.683 -33.5703 95.6651C-59.1903 86.6473 -86.7326 84.5324 -113.429 89.5328L-84.9427 241.617L61.0094 292.99Z" fill="#57F2B9"/>
<path d="M61.0094 292.99C67.7558 273.823 70.6608 253.515 69.5588 233.226C68.4569 212.936 63.3693 193.062 54.5868 174.739C45.8042 156.416 33.4987 140.002 18.3726 126.434C3.24661 112.867 -14.4036 102.411 -33.5703 95.6651L-84.9427 241.617L61.0094 292.99Z" fill="#EA1889"/>
<path d="M61.0094 292.99C70.0272 267.37 72.1421 239.827 67.1417 213.131C62.1413 186.435 50.2018 161.525 32.5231 140.905L-84.9427 241.617L61.0094 292.99Z" fill="#9F18D9"/>
<path d="M61.0094 292.99C70.0272 267.37 72.1421 239.827 67.1417 213.131L-84.9427 241.617L61.0094 292.99Z" fill="#57F2B9"/>
<defs>
<radialGradient id="paint0_radial_689_92" cx="0" cy="0" r="1" gradientUnits="userSpaceOnUse" gradientTransform="translate(-199.404 -83.4921) rotate(47.6614) scale(659.165 661.044)">
<stop offset="0.169475" stop-color="#4B00CC"/>
<stop offset="1" stop-color="#4B00CC" stop-opacity="0"/>
</radialGradient>
</defs>
</svg>
