<svg fill="none" xmlns="http://www.w3.org/2000/svg" viewBox="0 0 323 189">
  <ellipse cx="251.144" cy="-10.123" rx="189.813" ry="189.273" transform="rotate(24.458 251.144 -10.123)" fill="url(#a)"/>
  <circle cx="251.308" cy="-10.049" r="154.729" transform="rotate(24.458 251.308 -10.049)" fill="#EA1889"/>
  <path d="M392.153 54.013a154.728 154.728 0 0 0-260.31-162.394 154.73 154.73 0 0 0 209.409 224.234L251.308-10.049l140.845 64.062Z" fill="#9F18D9"/>
  <path d="M392.153 54.013a154.727 154.727 0 0 0-42.512-183.527 154.726 154.726 0 0 0-246.334 74.335 154.731 154.731 0 0 0 66.104 176.408 154.719 154.719 0 0 0 96.84 22.728L251.308-10.049l140.845 64.062Z" fill="#57F2B9"/>
  <path d="M392.153 54.013a154.734 154.734 0 0 0-27.76-169.67 154.73 154.73 0 1 0-177.147 246.453l64.062-140.845 140.845 64.062Z" fill="#EA1889"/>
  <path d="M392.153 54.013a154.732 154.732 0 0 0-76.783-204.907 154.73 154.73 0 0 0-189.963 230.79L251.308-10.05l140.845 64.062Z" fill="#9F18D9"/>
  <path d="M392.153 54.013a154.736 154.736 0 0 0-4.28-136.803A154.734 154.734 0 0 0 145.7-123.133 154.734 154.734 0 0 0 97.302 4.894l154.006-14.943 140.845 64.062Z" fill="#57F2B9"/>
  <path d="M392.153 54.013A154.728 154.728 0 1 0 110.464-74.111l140.844 64.062 140.845 64.062Z" fill="#EA1889"/>
  <path d="M392.153 54.013a154.727 154.727 0 0 0-42.512-183.527 154.726 154.726 0 0 0-188.277-6.436l89.944 125.901 140.845 64.062Z" fill="#9F18D9"/>
  <path d="M392.153 54.013a154.732 154.732 0 0 0-76.783-204.907 154.73 154.73 0 0 0-79.005-13.161l14.943 154.006 140.845 64.062Z" fill="#57F2B9"/>
  <path d="M392.153 54.013a154.72 154.72 0 0 0 4.046-118.356 154.734 154.734 0 0 0-80.829-86.551L251.308-10.049l140.845 64.062Z" fill="#EA1889"/>
  <path d="M392.153 54.013A154.732 154.732 0 0 0 377.21-99.993L251.308-10.05l140.845 64.062Z" fill="#9F18D9"/>
  <path d="M392.153 54.013a154.732 154.732 0 0 0 13.161-79.005L251.308-10.05l140.845 64.062Z" fill="#57F2B9"/>
  <circle cx="251.219" cy="-10.287" r="25.009" transform="rotate(24.458 251.219 -10.287)" fill="#D396ED"/>
  <circle cx="251.219" cy="-10.287" r="14.933" transform="rotate(24.458 251.219 -10.287)" fill="#57F2B9"/>
  <defs>
    <radialGradient id="a" cx="0" cy="0" r="1" gradientUnits="userSpaceOnUse" gradientTransform="matrix(443.95465 487.23995 -488.62886 445.22017 136.852 -335.173)">
      <stop offset=".169" stop-color="#4B00CC"/>
      <stop offset="1" stop-color="#4B00CC" stop-opacity="0"/>
    </radialGradient>
  </defs>
</svg>

