<?xml version="1.0" encoding="iso-8859-1"?>
<!-- Generator: Adobe Illustrator 18.1.1, SVG Export Plug-In . SVG Version: 6.00 Build 0)  -->
<svg version="1.1" id="Capa_1" xmlns="http://www.w3.org/2000/svg" xmlns:xlink="http://www.w3.org/1999/xlink" x="0px" y="0px"
	 viewBox="0 0 61.318 61.318" style="enable-background:new 0 0 61.318 61.318;" xml:space="preserve">
<g>
	<path style="fill:#030104;" d="M43.197,6.929c-0.484-0.404-1.29-0.697-1.917-0.697H20.038c-0.627,0-1.433,0.293-1.917,0.697
		L0.556,21.638c-0.333,0.279-0.529,0.67-0.553,1.098c-0.025,0.428,0.127,0.836,0.427,1.15l6.668,7.008
		c0.563,0.594,1.604,0.67,2.244,0.162l3.539-2.783c0.435-0.342,0.786-0.172,0.786,0.381v24.838c0,0.877,0.715,1.594,1.594,1.594
		h30.797c0.879,0,1.594-0.717,1.594-1.594V28.654c0-0.553,0.352-0.723,0.786-0.381l3.538,2.783c0.643,0.508,1.682,0.432,2.245-0.162
		l6.668-7.008c0.3-0.315,0.451-0.723,0.427-1.15c-0.024-0.428-0.22-0.818-0.555-1.098C60.761,21.638,43.197,6.929,43.197,6.929z
		 M8.305,29.8c-0.028-0.002-0.362-0.326-0.745-0.725l-5.286-5.498c-0.383-0.398-0.367-0.992,0.035-1.33
		c0.401-0.336,1.037-0.285,1.42,0.113l5.368,5.594c0.383,0.398,0.372,0.975-0.023,1.285C8.678,29.552,8.334,29.802,8.305,29.8z
		 M46.058,26.808l0.001,25.684c0,0.553-0.447,1-1,1H16.261c-0.553,0-1-0.447-1-1V26.808c0-0.812-0.552-1.24-1.094-1.24
		c-0.279,0-0.564,0.109-0.822,0.311l-2.377,1.871c-0.435,0.342-0.705,0.541-0.604,0.445c0.1-0.096-0.129-0.498-0.512-0.896
		l-5.355-5.582c-0.383-0.398-0.35-1.008,0.074-1.363L19.142,8.153c0.193-0.162,0.646-0.326,0.896-0.326H41.28
		c0.25,0,0.703,0.164,0.896,0.326l14.523,12.106c0.425,0.354,0.459,0.963,0.076,1.361l-5.425,5.654
		c-0.383,0.398-1.044,0.443-1.478,0.101l-1.899-1.496c-0.258-0.201-0.543-0.311-0.822-0.311
		C46.609,25.568,46.058,25.995,46.058,26.808z M53.356,30.072c0.159,0.152-0.062-0.002-0.496-0.344l-0.628-0.494
		c-0.434-0.342-0.476-0.941-0.093-1.34l5.405-5.635c0.383-0.398,1.027-0.441,1.441-0.096c0.414,0.344,0.44,0.947,0.06,1.348
		l-5.29,5.56C53.374,29.472,53.195,29.919,53.356,30.072z M40.002,9.085H20.609c-0.342,0-0.664,0.144-0.883,0.398
		c-0.206,0.238-0.296,0.541-0.25,0.852c0.454,3.146,7.39,12.521,10.831,12.521c3.439,0,10.375-9.375,10.829-12.521
		c0.045-0.311-0.045-0.613-0.251-0.852C40.667,9.23,40.345,9.085,40.002,9.085z M30.308,22.06c-3.048,0-9.646-9.08-10.043-11.838
		c-0.016-0.102,0.026-0.174,0.064-0.217c0.066-0.076,0.171-0.121,0.28-0.121h19.393c0.109,0,0.216,0.045,0.282,0.121
		c0.037,0.043,0.078,0.115,0.063,0.217C39.95,12.98,33.353,22.06,30.308,22.06z"/>
</g>
<g>
</g>
<g>
</g>
<g>
</g>
<g>
</g>
<g>
</g>
<g>
</g>
<g>
</g>
<g>
</g>
<g>
</g>
<g>
</g>
<g>
</g>
<g>
</g>
<g>
</g>
<g>
</g>
<g>
</g>
</svg>
