<svg width="100" height="100" style="enable-background:new 0 0 100 100" xml:space="preserve" xmlns="http://www.w3.org/2000/svg"><style>.st8{fill:#b2005f}</style><g id="Layer_2"><path d="M2.5 50c2.616 63.358 92.407 63.309 95 0-2.599-63.324-92.391-63.343-95 0z" style="fill:#d43c89"/><path class="st8" d="M62.471 48.703c14.262-1.787 28.412 1.073 29.816 1.385-.067-10.143-3.699-19.46-9.649-26.765-.914 1.229-8.089 10.456-23.911 16.935 1.361 2.747 2.6 5.599 3.744 8.445zM78.38 18.624C70.826 11.877 60.887 7.788 49.99 7.788a44.765 44.765 0 0 0-10.028 1.207c1.181 1.586 8.958 12.221 15.978 25.134 15.242-5.719 21.682-14.41 22.44-15.505zM48.325 36.727c-7.086-12.645-14.752-23.28-15.888-24.844C20.47 17.558 11.49 28.639 8.727 41.955c1.916.022 19.565.089 39.598-5.228zM53.322 50.338a36.227 36.227 0 0 1 1.681-.51 134.722 134.722 0 0 0-3.451-7.23c-21.214 6.365-41.831 6.099-43.689 6.077-.378 11.28 3.842 21.983 10.906 29.786.973-1.664 12.631-21.026 34.553-28.123zM57.36 56.938c-23.395 8.179-31.812 24.451-32.546 25.966 10.985 9.003 28.446 11.476 41.654 5.475-.626-3.657-3.022-16.359-8.849-31.527-.086.043-.194.065-.259.086zM65.836 54.845c5.441 15.017 7.652 27.23 8.107 29.773 9.321-6.346 15.975-16.364 17.839-27.991-1.431-.457-12.897-3.869-25.946-1.782z"/></g></svg>
