<svg viewBox="0 0 32 32" fill="none" xmlns="http://www.w3.org/2000/svg"><path fill-rule="evenodd" clip-rule="evenodd" d="M9.953 1.421c1.564-.072 2.063-.088 6.047-.088 3.984 0 4.483.018 6.045.089 1.563.07 2.63.32 3.563.68.977.37 1.864.948 2.597 1.694a7.164 7.164 0 0 1 1.691 2.596c.363.933.61 2 .683 3.56.072 1.567.088 2.066.088 6.048 0 3.984-.018 4.483-.088 6.047-.071 1.56-.32 2.627-.683 3.56a7.195 7.195 0 0 1-1.69 2.599 7.191 7.191 0 0 1-2.598 1.69c-.933.363-2 .61-3.56.683-1.565.072-2.064.088-6.048.088s-4.483-.018-6.047-.088c-1.56-.07-2.626-.32-3.56-.683a7.196 7.196 0 0 1-2.598-1.69 7.189 7.189 0 0 1-1.692-2.598c-.362-.933-.61-2-.682-3.56-.072-1.566-.088-2.065-.088-6.048 0-3.984.018-4.482.088-6.045.071-1.563.32-2.63.682-3.563a7.195 7.195 0 0 1 1.693-2.597 7.19 7.19 0 0 1 2.596-1.692c.933-.362 2-.61 3.56-.682h.001Zm11.974 2.64c-1.547-.07-2.011-.085-5.927-.085-3.916 0-4.38.015-5.927.085-1.43.066-2.206.304-2.724.506a4.554 4.554 0 0 0-1.686 1.096 4.55 4.55 0 0 0-1.096 1.686c-.202.518-.44 1.294-.506 2.724-.07 1.547-.085 2.011-.085 5.927 0 3.916.015 4.38.085 5.927.066 1.43.304 2.207.506 2.724.234.636.609 1.213 1.096 1.686.473.487 1.05.862 1.686 1.096.518.202 1.294.44 2.724.506 1.547.07 2.01.085 5.927.085s4.38-.015 5.927-.085c1.43-.066 2.206-.304 2.724-.506a4.555 4.555 0 0 0 1.686-1.096 4.553 4.553 0 0 0 1.096-1.686c.202-.517.44-1.293.506-2.724.07-1.547.085-2.01.085-5.927 0-3.916-.015-4.38-.085-5.927-.066-1.43-.304-2.206-.506-2.724a4.555 4.555 0 0 0-1.096-1.686 4.55 4.55 0 0 0-1.686-1.096c-.518-.202-1.294-.44-2.724-.506Zm-7.8 16.46a4.892 4.892 0 1 0 3.521-9.127 4.891 4.891 0 0 0-6.487 3.889 4.893 4.893 0 0 0 2.966 5.239Zm-3.458-9.852a7.539 7.539 0 1 1 10.662 10.662 7.539 7.539 0 0 1-10.662-10.662Zm14.542-1.085a1.783 1.783 0 1 0-2.447-2.594 1.783 1.783 0 0 0 2.447 2.594Z" fill="currentColor"/></svg>
