<svg viewBox="0 0 32 32" fill="none" xmlns="http://www.w3.org/2000/svg"><path fill-rule="evenodd" clip-rule="evenodd" d="M1.333 3.784a2.45 2.45 0 0 1 2.451-2.45h24.43a2.45 2.45 0 0 1 2.453 2.45v24.43a2.45 2.45 0 0 1-2.452 2.453H3.784a2.451 2.451 0 0 1-2.45-2.452V3.785Zm11.611 8.734h3.972v1.994c.573-1.146 2.04-2.178 4.244-2.178 4.225 0 5.227 2.284 5.227 6.474v7.763H22.11v-6.808c0-2.387-.574-3.734-2.03-3.734-2.02 0-2.86 1.453-2.86 3.734v6.808h-4.277V12.517Zm-7.333 13.87h4.277V12.333H5.611v14.055ZM10.5 7.75a2.751 2.751 0 1 1-5.502.121 2.751 2.751 0 0 1 5.502-.12Z" fill="currentColor"/></svg>
