<svg fill="currentColor" xmlns="http://www.w3.org/2000/svg"><path d="M16 0C7.163 0 0 7.163 0 16s7.163 16 16 16 16-7.163 16-16S24.837 0 16 0Zm6.508 13.107c.007.136.009.273.009.406 0 4.167-3.169 8.969-8.965 8.969a8.892 8.892 0 0 1-4.83-1.417c.245.03.496.042.751.042a6.312 6.312 0 0 0 3.914-1.349 3.159 3.159 0 0 1-2.944-2.186c.472.09.958.07 1.422-.055a3.153 3.153 0 0 1-2.528-3.09v-.039a3.16 3.16 0 0 0 1.428.395 3.15 3.15 0 0 1-.975-4.21 8.96 8.96 0 0 0 6.495 3.295 3.152 3.152 0 0 1 5.37-2.875 6.326 6.326 0 0 0 2-.765 3.166 3.166 0 0 1-1.385 1.745 6.331 6.331 0 0 0 1.81-.498 6.39 6.39 0 0 1-1.572 1.632Z" /></svg>
