<svg fill="none" xmlns="http://www.w3.org/2000/svg" viewBox="0 0 161 161">
  <path d="M80.337 5.157C30.01 6.477 2.78 43.822 5.308 85.117c2.34 38.161 34.024 71.116 76.45 70.399 46.388-.792 72.349-36.628 73.708-74.437 1.509-41.722-34.137-77.004-75.13-75.922Z" fill="#D396ED"/>
  <path d="M80.827 22.05c-38.15 1.019-59.293 30.552-57.784 62.45 1.359 28.867 26.465 54.979 58.602 53.57 32.816-1.434 54.413-27.093 55.884-57.456 1.547-32.188-25.634-59.394-56.702-58.564Z" fill="#57F2B9"/>
  <path d="M40.325 73.155c3.145 1.019 5.258-9.623 16.226-18.452C67.507 45.885 79.47 45.37 79.167 40.4c-.302-4.968-12.918-4.05-20.59.503-7.51 4.466-14.1 10.239-17.748 19.27-2.114 5.22-2.856 12.226-.504 12.98Z" fill="#DEDEDE"/>
  <path d="M50.262 18.59c-1.572-2.138-8.314-.402-16.024 6.49-6.478 5.8-9.736 13.183-7.308 15.308 2.44 2.126 7.61-4.566 12.98-9.433 5.371-4.868 13.182-8.503 10.352-12.365Zm88.739 87.532c-4.176-1.485-5.673 5.307-7.61 8.414-8.717 14-20.792 20.704-27.886 23.836-4.364 1.924-8.314 2.025-6.993 6.289 1.019 3.283 8.113.516 10.553-.503 4.365-1.824 12.779-6.503 19.37-12.478 6.39-5.786 10.591-11.647 12.78-17.446.49-1.358 2.918-7.006-.214-8.112Z" fill="#fff"/>
  <path d="M65.778 76.207c0 .416-.079.794-.237 1.135-.15.333-.362.62-.636.861a2.957 2.957 0 0 1-.974.562 3.48 3.48 0 0 1-1.198.2c-.474 0-.881-.059-1.222-.175a3.128 3.128 0 0 1-.849-.437 2.401 2.401 0 0 1-.536-.6 3.82 3.82 0 0 1-.313-.648 3.554 3.554 0 0 1-.137-.574 4.57 4.57 0 0 1-.025-.4c.1.167.217.275.35.325.133.042.245.063.337.063.233 0 .395-.063.486-.188.1-.124.15-.258.15-.399a.745.745 0 0 0-.062-.287.613.613 0 0 0-.2-.274 1.01 1.01 0 0 0-.387-.225 1.753 1.753 0 0 0-.599-.087c-.166 0-.337.033-.511.1a1.393 1.393 0 0 0-.487.286 1.466 1.466 0 0 0-.35.475 1.546 1.546 0 0 0-.137.673c0 .25.05.5.15.75.108.24.25.47.424.685.183.217.395.412.637.587.25.175.52.32.81.437.458.191.928.378 1.41.561.492.183.966.383 1.423.6.458.215.886.465 1.286.748.407.274.76.603 1.06.986.308.382.55.831.724 1.347.183.508.274 1.103.274 1.785 0 .973-.2 1.863-.598 2.67a6.413 6.413 0 0 1-1.585 2.059 7.094 7.094 0 0 1-2.296 1.31 7.864 7.864 0 0 1-2.72.474 7.682 7.682 0 0 1-2.446-.386 6.792 6.792 0 0 1-2.034-1.036 5.355 5.355 0 0 1-1.398-1.547 3.844 3.844 0 0 1-.511-1.935c0-.507.083-.952.25-1.335.166-.382.394-.699.685-.948.3-.258.645-.45 1.036-.574.4-.125.824-.187 1.273-.187.35 0 .69.037 1.023.112.341.075.657.187.948.337.3.141.566.316.8.524.24.208.432.445.573.711a1.71 1.71 0 0 0-.462-.075c-.224 0-.403.067-.536.2s-.2.333-.2.599c0 .141.034.274.1.4.067.116.15.22.25.311.108.092.228.162.361.212.142.05.288.075.437.075.167 0 .32-.033.462-.1.141-.075.266-.17.374-.287.108-.116.192-.245.25-.386.058-.142.087-.287.087-.437 0-.291-.091-.587-.274-.886a2.51 2.51 0 0 0-.774-.799c-.649-.399-1.26-.744-1.834-1.035a83.924 83.924 0 0 1-1.585-.824c-.483-.266-.92-.532-1.31-.799a4.542 4.542 0 0 1-.986-.923 3.834 3.834 0 0 1-.611-1.223c-.142-.474-.213-1.044-.213-1.71 0-.798.154-1.547.462-2.246a5.22 5.22 0 0 1 1.335-1.821c.59-.524 1.31-.936 2.159-1.236.849-.3 1.814-.449 2.895-.449 1.09 0 2.013.133 2.77.4.757.257 1.369.594 1.834 1.01.475.416.816.882 1.024 1.398.216.507.324 1.01.324 1.51Zm14.612 3.331c0 .882-.141 1.677-.424 2.384a5.727 5.727 0 0 1-1.098 1.797c-.458.49-.982.869-1.572 1.135-.591.266-1.203.4-1.835.4-.35 0-.694-.038-1.035-.113a4.121 4.121 0 0 1-1.011-.4c.075.616.195 1.249.362 1.897.141.558.34 1.182.599 1.872.266.682.615 1.352 1.048 2.01a39.652 39.652 0 0 0-2.296-.188 30.001 30.001 0 0 0-1.835-.062c-.74 0-1.364.025-1.871.075-.5.05-.907.108-1.223.174a5.711 5.711 0 0 0-.874.237c.208-.64.387-1.339.537-2.096.15-.757.275-1.547.374-2.37.1-.825.175-1.665.225-2.522.05-.865.075-1.722.075-2.57 0-.923-.03-1.826-.088-2.708a29.901 29.901 0 0 0-.262-2.495 18.73 18.73 0 0 0-.411-2.134c-.167-.64-.358-1.177-.574-1.61.399.125.815.216 1.248.274.44.05.885.075 1.335.075.407 0 .815-.016 1.222-.05.416-.041.824-.083 1.223-.124.4-.042.787-.08 1.16-.113a9.524 9.524 0 0 1 1.05-.062c.349 0 .735.046 1.16.137.432.092.869.25 1.31.474.44.217.87.508 1.285.874.416.366.786.82 1.11 1.36.325.54.583 1.177.774 1.91.2.731.304 1.576.312 2.532Zm-7.112 2.034c.208-.2.445-.44.71-.724.275-.29.533-.603.775-.935.24-.341.44-.69.599-1.048.166-.358.249-.7.249-1.024 0-.374-.108-.67-.324-.886-.208-.224-.441-.337-.7-.337a.797.797 0 0 0-.586.238c-.15.157-.274.366-.374.623-.1.25-.175.533-.225.849a11.627 11.627 0 0 0-.15 1.772v1.035c0 .142.009.287.026.437Zm15.136 8.797a31.76 31.76 0 0 0-.587-.05c-.191-.016-.42-.029-.686-.037a30.025 30.025 0 0 0-.923-.012c-.674 0-1.456.029-2.346.087-.89.058-1.855.17-2.895.337.183-.374.34-.849.474-1.423.133-.574.241-1.185.324-1.834.092-.657.162-1.323.212-1.996.05-.674.088-1.302.113-1.885a35.87 35.87 0 0 0 .037-1.51c.008-.424.013-.715.013-.873 0-.033-.005-.162-.013-.387 0-.225-.004-.516-.012-.873-.009-.358-.021-.766-.038-1.223a47.107 47.107 0 0 0-.075-1.448c-.025-.499-.062-1.002-.112-1.51a22.213 22.213 0 0 0-.162-1.435c-.058-.449-.13-.852-.212-1.21-.075-.366-.167-.653-.275-.861.84.15 1.61.25 2.309.3.707.05 1.343.074 1.909.074.374 0 .711-.008 1.01-.025.3-.016.554-.033.762-.05.241-.025.453-.05.636-.074-.1.466-.187.985-.262 1.56a46.605 46.605 0 0 0-.337 3.843 62.08 62.08 0 0 0-.037 2.183c0 .866.02 1.747.062 2.646.042.89.108 1.776.2 2.658.1.882.22 1.747.362 2.595.15.849.333 1.66.549 2.433Zm8.198 0a20.017 20.017 0 0 0-1.223-.087 27.857 27.857 0 0 0-.886-.012c-.649 0-1.41.029-2.283.087-.865.058-1.818.17-2.858.337.183-.374.341-.849.474-1.423.133-.574.242-1.185.325-1.834.091-.657.162-1.323.212-1.996a61.1 61.1 0 0 0 .112-1.885c.025-.582.038-1.085.038-1.51.008-.424.012-.715.012-.873 0-.033-.004-.162-.012-.387 0-.225-.005-.516-.013-.873-.008-.358-.02-.766-.037-1.223a47.107 47.107 0 0 0-.075-1.448 31.44 31.44 0 0 0-.112-1.51 22.213 22.213 0 0 0-.163-1.435c-.058-.449-.129-.852-.212-1.21-.075-.366-.166-.653-.274-.861.84.15 1.605.25 2.296.3.69.05 1.306.074 1.846.074.367 0 .69-.008.974-.025.29-.016.532-.033.724-.05.224-.025.424-.05.598-.074a53.476 53.476 0 0 0 1.223 4.904 36.173 36.173 0 0 0 1.548 4.192v-.511a99.553 99.553 0 0 0-.138-3.794c-.033-.499-.07-1.002-.112-1.51a22.14 22.14 0 0 0-.162-1.435c-.058-.449-.13-.852-.212-1.21-.075-.366-.167-.653-.275-.861.832.15 1.597.25 2.296.3.707.05 1.331.074 1.872.074.366 0 .69-.008.973-.025.291-.016.533-.033.724-.05.225-.025.424-.05.599-.074-.1.466-.187.985-.262 1.56a45.347 45.347 0 0 0-.337 3.88 63.294 63.294 0 0 0-.037 2.209c0 .857.02 1.73.062 2.62.042.882.108 1.764.2 2.646.099.873.22 1.734.361 2.583.15.84.325 1.647.525 2.42a17.624 17.624 0 0 0-1.173-.087c-.25-.008-.533-.012-.849-.012-.599 0-1.289.029-2.071.087-.782.058-1.623.17-2.52.337 0-.857-.072-1.693-.213-2.508a17.069 17.069 0 0 0-.574-2.421c-.25-.799-.55-1.58-.898-2.346a29.197 29.197 0 0 0-1.161-2.271c.008.782.037 1.572.087 2.37.059.8.133 1.59.225 2.372.1.782.216 1.551.35 2.308.14.749.303 1.473.486 2.172Zm16.247-18.355a22.693 22.693 0 0 0-.836 2.57 32.153 32.153 0 0 0-.587 2.808 37.873 37.873 0 0 0-.362 2.945 39.466 39.466 0 0 0-.099 3.893l.049.923a9.236 9.236 0 0 0-1.222-.187 11.212 11.212 0 0 0-1.922-.037 5.338 5.338 0 0 0-.724.075 34.664 34.664 0 0 0 .05-1.922c0-1.056-.046-2.117-.137-3.182a38.39 38.39 0 0 0-.35-3.032 25.979 25.979 0 0 0-.511-2.608c-.2-.79-.412-1.435-.637-1.934.292.041.649.075 1.074.1a36.19 36.19 0 0 0 4.03-.075c.433-.034.836-.08 1.21-.138.375-.058.699-.124.974-.2Zm-6.539 16.434c0-.358.067-.695.2-1.01.141-.325.328-.608.561-.85.242-.24.52-.428.836-.561.325-.141.67-.212 1.036-.212.358 0 .695.07 1.011.212a2.561 2.561 0 0 1 1.41 1.41c.141.316.212.653.212 1.01 0 .367-.071.712-.212 1.037-.133.316-.32.594-.562.836a2.663 2.663 0 0 1-.848.549 2.447 2.447 0 0 1-1.011.212c-.366 0-.711-.071-1.036-.212a2.711 2.711 0 0 1-.836-.55 2.884 2.884 0 0 1-.561-.835c-.133-.325-.2-.67-.2-1.036Z" fill="#4B00CC"/>
</svg>
