<svg fill="none" xmlns="http://www.w3.org/2000/svg">
  <path d="M15.436 17H6.562L11 4.572 15.436 17Zm.714 2 .456 1.278 1.566-1.564L12.13 1.788a1.2 1.2 0 0 0-2.26 0L2.058 23.67a1 1 0 1 0 1.884.674L5.848 19H16.15Zm9.468-4.904-9.66 9.66a4.395 4.395 0 0 0-1.156 2.04l-.748 2.996c-.023.092-.04.186-.048.28a9.2 9.2 0 0 1-2.222-.176c-.146-.034-.2-.22-.132-.356.36-.696.466-2.146-.808-2.66-1.72-.69-3.956.25-5.724.996-.732.308-1.384.58-1.888.692-.774.172-1.696-.13-2.432-.498-.424-.212-.964.164-.72.572.438.732 1.228 1.474 2.652 1.65 1.64.204 2.782-.304 3.95-.82.8-.356 1.61-.716 2.6-.856.172-.024.29.18.224.34-.304.714-.266 1.788.632 2.488 1.036.81 4.382 1.022 6.626.366l2.442-.61a4.384 4.384 0 0 0 2.042-1.156l9.66-9.66a3.74 3.74 0 0 0-5.29-5.288Z" fill="#4B00CC"/>
</svg>
