<svg fill="none" xmlns="http://www.w3.org/2000/svg">
  <path d="M10.666 25.422V11.778h16.445L28.866 10H8.89v15.422h1.777Z" fill="#4B00CC"/>
  <path d="M6.667 7.778h26.666v17.778h2.222V7.222a1.666 1.666 0 0 0-1.666-1.666H6.11a1.667 1.667 0 0 0-1.667 1.666v18.334h2.223V7.778ZM1.111 27.777v3.778a2.889 2.889 0 0 0 2.89 2.889h31.933a2.89 2.89 0 0 0 2.888-2.889v-3.778H1.112Zm35.556 3.778a.667.667 0 0 1-.667.667H3.956a.666.666 0 0 1-.667-.667v-2.078h11.056a1.821 1.821 0 0 0 1.666 1.111h7.922a1.822 1.822 0 0 0 1.667-1.11h11.067v2.077Z" fill="#4B00CC"/>
</svg>
