<svg viewBox="0 0 36 35" fill="none" xmlns="http://www.w3.org/2000/svg">
<path d="M25.096 11.25C25.9248 11.25 26.7196 10.9208 27.3057 10.3347C27.8917 9.74866 28.221 8.9538 28.221 8.125C28.221 7.2962 27.8917 6.50134 27.3057 5.91529C26.7196 5.32924 25.9248 5 25.096 5C24.2672 5 23.4723 5.32924 22.8862 5.91529C22.3002 6.50134 21.971 7.2962 21.971 8.125C21.971 8.9538 22.3002 9.74866 22.8862 10.3347C23.4723 10.9208 24.2672 11.25 25.096 11.25ZM20.326 0C19.0578 0.000228319 17.8371 0.48235 16.911 1.34875L1.68346 15.5925C1.16295 16.0794 0.745736 16.666 0.456646 17.3174C0.167556 17.9689 0.0125055 18.6719 0.000725728 19.3845C-0.0110541 20.0971 0.120678 20.8048 0.388078 21.4655C0.655478 22.1261 1.05308 22.7262 1.55721 23.23L9.46471 31.1362C10.4131 32.0843 11.6849 32.6386 13.0249 32.688C14.365 32.7374 15.6741 32.2782 16.6897 31.4025C16.232 30.6394 15.8669 29.8245 15.6022 28.975L15.2097 29.3688C14.9485 29.6299 14.6385 29.8371 14.2973 29.9784C13.956 30.1198 13.5903 30.1925 13.221 30.1925C12.8516 30.1925 12.4859 30.1198 12.1447 29.9784C11.8034 29.8371 11.4934 29.6299 11.2322 29.3688L3.32471 21.4613C3.058 21.1945 2.84767 20.8768 2.70624 20.5271C2.56481 20.1774 2.49517 19.8029 2.50147 19.4257C2.50777 19.0485 2.58987 18.6765 2.7429 18.3317C2.89592 17.9869 3.11674 17.6764 3.39221 17.4187L18.6172 3.17375C19.081 2.74019 19.6923 2.49931 20.3272 2.5H28.846C29.3432 2.5 29.8202 2.69754 30.1718 3.04917C30.5234 3.40081 30.721 3.87772 30.721 4.375V12.8212C30.7211 13.1497 30.6564 13.475 30.5307 13.7785C30.405 14.082 30.2208 14.3578 29.9885 14.59L29.696 14.8825C30.5409 15.1455 31.3516 15.508 32.111 15.9625C32.8292 15.0731 33.2209 13.9644 33.221 12.8212V4.375C33.221 3.21468 32.76 2.10188 31.9396 1.28141C31.1191 0.460936 30.0063 0 28.846 0H20.326ZM16.971 25.625C16.971 26.8561 17.2135 28.0752 17.6846 29.2127C18.1557 30.3501 18.8463 31.3836 19.7168 32.2541C20.5874 33.1247 21.6209 33.8152 22.7583 34.2864C23.8957 34.7575 25.1148 35 26.346 35C27.5771 35 28.7962 34.7575 29.9336 34.2864C31.071 33.8152 32.1045 33.1247 32.9751 32.2541C33.8456 31.3836 34.5362 30.3501 35.0073 29.2127C35.4785 28.0752 35.721 26.8561 35.721 25.625C35.721 23.1386 34.7332 20.754 32.9751 18.9959C31.2169 17.2377 28.8324 16.25 26.346 16.25C23.8596 16.25 21.475 17.2377 19.7168 18.9959C17.9587 20.754 16.971 23.1386 16.971 25.625ZM25.0672 31.165C25.0672 30.8259 25.2019 30.5006 25.4417 30.2608C25.6816 30.021 26.0068 29.8862 26.346 29.8862C26.6851 29.8862 27.0104 30.021 27.2502 30.2608C27.49 30.5006 27.6247 30.8259 27.6247 31.165C27.6247 31.5041 27.49 31.8294 27.2502 32.0692C27.0104 32.309 26.6851 32.4437 26.346 32.4437C26.0068 32.4437 25.6816 32.309 25.4417 32.0692C25.2019 31.8294 25.0672 31.5041 25.0672 31.165ZM22.9372 23.0688C22.9372 22.1647 23.2963 21.2977 23.9356 20.6584C24.5749 20.0191 25.4419 19.66 26.346 19.66C27.25 19.66 28.117 20.0191 28.7563 20.6584C29.3956 21.2977 29.7547 22.1647 29.7547 23.0688C29.7547 24.3137 29.3947 25.0113 28.4697 25.98L28.0197 26.4387L27.8222 26.6512C27.3385 27.1937 27.1972 27.5513 27.1972 28.1812C27.2016 28.2959 27.1828 28.4102 27.142 28.5174C27.1012 28.6246 27.0391 28.7224 26.9596 28.805C26.88 28.8877 26.7846 28.9534 26.6791 28.9983C26.5736 29.0432 26.46 29.0664 26.3453 29.0664C26.2306 29.0664 26.1171 29.0432 26.0116 28.9983C25.906 28.9534 25.8106 28.8877 25.7311 28.805C25.6516 28.7224 25.5895 28.6246 25.5487 28.5174C25.5079 28.4102 25.4891 28.2959 25.4935 28.1812C25.4935 26.9363 25.8547 26.2387 26.7785 25.27L27.2285 24.8113L27.4272 24.5988C27.9097 24.0563 28.051 23.6987 28.051 23.0688C28.051 22.6166 27.8713 22.1829 27.5516 21.8631C27.2318 21.5434 26.7982 21.3638 26.346 21.3638C25.8938 21.3638 25.4601 21.5434 25.1403 21.8631C24.8206 22.1829 24.641 22.6166 24.641 23.0688C24.6325 23.289 24.5391 23.4975 24.3802 23.6504C24.2214 23.8032 24.0095 23.8886 23.7891 23.8886C23.5686 23.8886 23.3568 23.8032 23.1979 23.6504C23.0391 23.4975 22.9457 23.289 22.9372 23.0688Z" fill="#4B00CC"/>
</svg>
