<svg fill="none" xmlns="http://www.w3.org/2000/svg">
  <path d="M25.096 11.25a3.125 3.125 0 1 0 0-6.25 3.125 3.125 0 0 0 0 6.25ZM20.326 0a5 5 0 0 0-3.415 1.349L1.683 15.592a5.313 5.313 0 0 0-.126 7.638l7.908 7.906a5.312 5.312 0 0 0 7.225.267 11.193 11.193 0 0 1-1.088-2.428l-.392.394a2.813 2.813 0 0 1-3.978 0L3.325 21.46a2.813 2.813 0 0 1 .067-4.042L18.617 3.174a2.5 2.5 0 0 1 1.71-.674h8.519a1.875 1.875 0 0 1 1.875 1.875v8.446a2.5 2.5 0 0 1-.733 1.769l-.292.293c.845.263 1.656.625 2.415 1.08a5 5 0 0 0 1.11-3.142V4.375A4.375 4.375 0 0 0 28.846 0h-8.52Zm-3.355 25.625a9.376 9.376 0 0 0 16.004 6.63 9.375 9.375 0 1 0-16.004-6.63Zm8.096 5.54a1.279 1.279 0 1 1 2.558 0 1.279 1.279 0 0 1-2.558 0Zm-2.13-8.096a3.409 3.409 0 1 1 6.818 0c0 1.245-.36 1.942-1.285 2.911l-.45.459-.198.212c-.483.543-.625.9-.625 1.53a.853.853 0 1 1-1.703 0c0-1.245.36-1.942 1.285-2.911l.45-.459.198-.212c.483-.543.624-.9.624-1.53a1.705 1.705 0 0 0-3.41 0 .853.853 0 0 1-1.704 0Z" fill="#4B00CC"/>
</svg>
