<svg fill="none" xmlns="http://www.w3.org/2000/svg">
  <path fill-rule="evenodd" clip-rule="evenodd" d="M22.5 10.446c.97.29 1.667.387 1.667.387v-2.5h1.666a4.167 4.167 0 1 0 0-8.333H21.03a4.363 4.363 0 0 0-4.363 4.363c0 3.765 3.623 5.422 5.833 6.083Zm5.833-6.28a2.5 2.5 0 0 1-2.5 2.5H22.5v2.03c-.457-.155-.904-.341-1.336-.556-1.652-.828-2.83-2.007-2.83-3.777a2.696 2.696 0 0 1 2.696-2.696h4.803a2.5 2.5 0 0 1 2.5 2.5ZM7.348 9.995a4.165 4.165 0 0 1 .15-8.327h2.641a4.027 4.027 0 0 1 4.028 4.027c0 3.369-3.025 4.908-5 5.556-.957.313-1.667.417-1.667.417V10l-.152-.006Zm1.819-1.601-1.759-.064a2.498 2.498 0 0 1 .09-4.996h2.64A2.36 2.36 0 0 1 12.5 5.694c0 1.596-1.014 2.642-2.437 3.384-.3.156-.604.29-.896.403V8.393ZM18.333 15A3.332 3.332 0 0 1 15 18.333 3.332 3.332 0 0 1 11.667 15 3.332 3.332 0 0 1 15 11.667 3.332 3.332 0 0 1 18.333 15Zm-1.666 0a1.667 1.667 0 1 1-3.334 0 1.667 1.667 0 0 1 3.334 0Zm-5.834 1.667a3.332 3.332 0 1 1-6.666 0 3.332 3.332 0 1 1 6.666 0Zm-1.666 0a1.667 1.667 0 1 1-3.334 0 1.667 1.667 0 0 1 3.334 0ZM0 25.454c0-2.518 4.997-3.787 7.5-3.787.487 0 1.07.048 1.692.144C10.308 20.99 12.356 20 15 20c2.643 0 4.69.992 5.81 1.81a11.36 11.36 0 0 1 1.69-.143c2.503 0 7.5 1.269 7.5 3.787V30H0v-4.546Zm13.043-.435c.29.27.29.411.29.435v2.88H1.667v-2.88c0-.025 0-.165.29-.435.302-.282.801-.583 1.48-.858 1.36-.55 3.021-.828 4.063-.828 1.042 0 2.703.278 4.063.828.679.275 1.178.576 1.48.858Zm5.409-2.639A8.641 8.641 0 0 0 15 21.667c-1.38 0-2.553.321-3.45.713C13.394 23 15 24.027 15 25.455c0-1.428 1.605-2.454 3.452-3.075Zm9.881 3.075c0-.025 0-.166-.29-.436-.302-.282-.801-.583-1.48-.858-1.36-.55-3.021-.828-4.063-.828-1.042 0-2.703.278-4.063.828-.679.275-1.178.576-1.48.858-.29.27-.29.411-.29.435v2.88h11.666v-2.88.001ZM22.5 20a3.332 3.332 0 0 0 3.333-3.333 3.332 3.332 0 1 0-6.666 0A3.332 3.332 0 0 0 22.5 20Zm0-1.667a1.667 1.667 0 1 0 0-3.333 1.667 1.667 0 0 0 0 3.333Z" fill="#4B00CC"/>
</svg>
